<svg width="1156" height="838" viewBox="0 0 1156 838" fill="none" xmlns="http://www.w3.org/2000/svg">
<g style="mix-blend-mode:overlay" clip-path="url(#clip0_4_46)" filter="url(#filter0_f_4_46)">
<g opacity="0.4">
<path d="M294.462 118.286C294.678 118.286 294.853 118.111 294.853 117.895C294.853 117.679 294.678 117.504 294.462 117.504C294.246 117.504 294.072 117.679 294.072 117.895C294.072 118.111 294.246 118.286 294.462 118.286Z" fill="white"/>
<path d="M364.778 126.098C364.994 126.098 365.168 125.924 365.168 125.708C365.168 125.492 364.994 125.317 364.778 125.317C364.562 125.317 364.387 125.492 364.387 125.708C364.387 125.924 364.562 126.098 364.778 126.098Z" fill="white"/>
<path d="M435.093 87.0345C435.309 87.0345 435.484 86.8596 435.484 86.6438C435.484 86.4281 435.309 86.2532 435.093 86.2532C434.878 86.2532 434.703 86.4281 434.703 86.6438C434.703 86.8596 434.878 87.0345 435.093 87.0345Z" fill="white"/>
<path opacity="0.4" d="M505.409 16.719C505.625 16.719 505.8 16.5441 505.8 16.3284C505.8 16.1126 505.625 15.9377 505.409 15.9377C505.193 15.9377 505.018 16.1126 505.018 16.3284C505.018 16.5441 505.193 16.719 505.409 16.719Z" fill="white"/>
<path d="M427.281 141.724C427.496 141.724 427.671 141.549 427.671 141.333C427.671 141.118 427.496 140.943 427.281 140.943C427.065 140.943 426.89 141.118 426.89 141.333C426.89 141.549 427.065 141.724 427.281 141.724Z" fill="white"/>
<path d="M544.473 94.8472C544.689 94.8472 544.864 94.6723 544.864 94.4566C544.864 94.2408 544.689 94.0659 544.473 94.0659C544.257 94.0659 544.083 94.2408 544.083 94.4566C544.083 94.6723 544.257 94.8472 544.473 94.8472Z" fill="white"/>
<path d="M560.099 87.0345C560.315 87.0345 560.49 86.8596 560.49 86.6438C560.49 86.4281 560.315 86.2532 560.099 86.2532C559.883 86.2532 559.708 86.4281 559.708 86.6438C559.708 86.8596 559.883 87.0345 560.099 87.0345Z" fill="white"/>
<path d="M567.912 16.719C568.128 16.719 568.303 16.5441 568.303 16.3284C568.303 16.1126 568.128 15.9377 567.912 15.9377C567.696 15.9377 567.521 16.1126 567.521 16.3284C567.521 16.5441 567.696 16.719 567.912 16.719Z" fill="white"/>
<path opacity="0.5" d="M456.969 24.5318C457.185 24.5318 457.36 24.3569 457.36 24.1411C457.36 23.9254 457.185 23.7505 456.969 23.7505C456.754 23.7505 456.579 23.9254 456.579 24.1411C456.579 24.3569 456.754 24.5318 456.969 24.5318Z" fill="white"/>
<path opacity="0.4" d="M362.434 79.2215C362.65 79.2215 362.824 79.0466 362.824 78.8308C362.824 78.6151 362.65 78.4402 362.434 78.4402C362.218 78.4402 362.043 78.6151 362.043 78.8308C362.043 79.0466 362.218 79.2215 362.434 79.2215Z" fill="white"/>
<path d="M260.086 165.162C260.301 165.162 260.476 164.987 260.476 164.772C260.476 164.556 260.301 164.381 260.086 164.381C259.87 164.381 259.695 164.556 259.695 164.772C259.695 164.987 259.87 165.162 260.086 165.162Z" fill="white"/>
<path d="M581.194 68.2835C581.409 68.2835 581.584 68.1086 581.584 67.8928C581.584 67.6771 581.409 67.5022 581.194 67.5022C580.978 67.5022 580.803 67.6771 580.803 67.8928C580.803 68.1086 580.978 68.2835 581.194 68.2835Z" fill="white"/>
<path d="M196.802 251.103C197.017 251.103 197.192 250.928 197.192 250.712C197.192 250.497 197.017 250.322 196.802 250.322C196.586 250.322 196.411 250.497 196.411 250.712C196.411 250.928 196.586 251.103 196.802 251.103Z" fill="white"/>
</g>
<g style="mix-blend-mode:overlay" filter="url(#filter1_f_4_46)">
<path opacity="0.1" d="M-51.2563 171.233L278.064 143.888L289.369 833.493L-51.2563 171.233Z" fill="#BDFFDF"/>
</g>
<g style="mix-blend-mode:overlay" filter="url(#filter2_f_4_46)">
<path opacity="0.1" d="M1196.8 264.205L867.48 236.86L856.175 926.465L1196.8 264.205Z" fill="#FFBDE8"/>
</g>
<g opacity="0.2" filter="url(#filter3_f_4_46)">
<path d="M533.926 548.771C533.926 538.415 525.531 530.02 515.175 530.02C504.819 530.02 496.424 538.415 496.424 548.771V555.021C496.424 565.377 504.819 573.772 515.175 573.772C525.531 573.772 533.926 565.377 533.926 555.021V548.771Z" fill="#5E6AD2"/>
</g>
</g>
<defs>
<filter id="filter0_f_4_46" x="0.934082" y="-10" width="1155.05" height="848" filterUnits="userSpaceOnUse" color-interpolation-filters="sRGB">
<feFlood flood-opacity="0" result="BackgroundImageFix"/>
<feBlend mode="normal" in="SourceGraphic" in2="BackgroundImageFix" result="shape"/>
<feGaussianBlur stdDeviation="7.5" result="effect1_foregroundBlur_4_46"/>
</filter>
<filter id="filter1_f_4_46" x="-179.256" y="15.8882" width="596.625" height="945.604" filterUnits="userSpaceOnUse" color-interpolation-filters="sRGB">
<feFlood flood-opacity="0" result="BackgroundImageFix"/>
<feBlend mode="normal" in="SourceGraphic" in2="BackgroundImageFix" result="shape"/>
<feGaussianBlur stdDeviation="64" result="effect1_foregroundBlur_4_46"/>
</filter>
<filter id="filter2_f_4_46" x="728.175" y="108.86" width="596.625" height="945.604" filterUnits="userSpaceOnUse" color-interpolation-filters="sRGB">
<feFlood flood-opacity="0" result="BackgroundImageFix"/>
<feBlend mode="normal" in="SourceGraphic" in2="BackgroundImageFix" result="shape"/>
<feGaussianBlur stdDeviation="64" result="effect1_foregroundBlur_4_46"/>
</filter>
<filter id="filter3_f_4_46" x="420.424" y="454.02" width="189.502" height="195.752" filterUnits="userSpaceOnUse" color-interpolation-filters="sRGB">
<feFlood flood-opacity="0" result="BackgroundImageFix"/>
<feBlend mode="normal" in="SourceGraphic" in2="BackgroundImageFix" result="shape"/>
<feGaussianBlur stdDeviation="38" result="effect1_foregroundBlur_4_46"/>
</filter>
<clipPath id="clip0_4_46">
<rect width="1125.05" height="818" fill="white" transform="translate(15.9341 5)"/>
</clipPath>
</defs>
</svg>
