<svg width="275" height="384" viewBox="0 0 275 384" fill="none" xmlns="http://www.w3.org/2000/svg">
<g filter="url(#filter0_d_4_178)">
<mask id="mask0_4_178" style="mask-type:luminance" maskUnits="userSpaceOnUse" x="10" y="5" width="255" height="365">
<path d="M249.682 5.45972H24.9235C16.8826 5.45972 10.3643 11.9781 10.3643 20.0189V354.881C10.3643 362.922 16.8826 369.44 24.9235 369.44H249.682C257.723 369.44 264.241 362.922 264.241 354.881V20.0189C264.241 11.9781 257.723 5.45972 249.682 5.45972Z" fill="white"/>
</mask>
<g mask="url(#mask0_4_178)">
<path d="M249.682 5.45972H24.9235C16.8826 5.45972 10.3643 11.9781 10.3643 20.0189V354.881C10.3643 362.922 16.8826 369.44 24.9235 369.44H249.682C257.723 369.44 264.241 362.922 264.241 354.881V20.0189C264.241 11.9781 257.723 5.45972 249.682 5.45972Z" fill="url(#paint0_radial_4_178)" fill-opacity="0.6"/>
<path d="M249.682 5.45972H24.9235C16.8826 5.45972 10.3643 11.9781 10.3643 20.0189V354.881C10.3643 362.922 16.8826 369.44 24.9235 369.44H249.682C257.723 369.44 264.241 362.922 264.241 354.881V20.0189C264.241 11.9781 257.723 5.45972 249.682 5.45972Z" fill="url(#paint1_radial_4_178)" fill-opacity="0.08"/>
<path d="M264.241 5.45972H10.3643V369.44H264.241V5.45972Z" fill="url(#paint2_radial_4_178)"/>
<g style="mix-blend-mode:luminosity">
<path d="M240.582 16.8342H32.2032C26.4239 16.8342 21.7388 21.5193 21.7388 27.2987V347.602C21.7388 353.381 26.4239 358.066 32.2032 358.066H240.582C246.362 358.066 251.047 353.381 251.047 347.602V27.2987C251.047 21.5193 246.362 16.8342 240.582 16.8342Z" stroke="#252527"/>
</g>
<mask id="mask1_4_178" style="mask-type:luminance" maskUnits="userSpaceOnUse" x="21" y="16" width="231" height="125">
<path d="M240.582 16.3792H32.2031C26.1725 16.3792 21.2837 21.2679 21.2837 27.2986V129.213C21.2837 135.244 26.1725 140.133 32.2031 140.133H240.582C246.613 140.133 251.502 135.244 251.502 129.213V27.2986C251.502 21.2679 246.613 16.3792 240.582 16.3792Z" fill="white"/>
</mask>
<g mask="url(#mask1_4_178)">
<path d="M240.582 16.3792H32.2031C26.1725 16.3792 21.2837 21.2679 21.2837 27.2986V129.213C21.2837 135.244 26.1725 140.133 32.2031 140.133H240.582C246.613 140.133 251.502 135.244 251.502 129.213V27.2986C251.502 21.2679 246.613 16.3792 240.582 16.3792Z" fill="#1B1B1B"/>
<path fill-rule="evenodd" clip-rule="evenodd" d="M27.6043 82.2068C27.9847 82.2068 28.2941 82.5154 28.2941 82.8965C28.2941 83.2773 27.9856 83.5864 27.6043 83.5864C27.2231 83.5864 26.9146 83.2773 26.9146 82.8965C26.9146 82.5154 27.2231 82.2068 27.6043 82.2068Z" fill="#888888" fill-opacity="0.57"/>
<path fill-rule="evenodd" clip-rule="evenodd" d="M27.6043 78.0959C27.9847 78.0959 28.2941 78.4046 28.2941 78.7857C28.2941 79.1665 27.9856 79.4756 27.6043 79.4756C27.2231 79.4756 26.9146 79.1665 26.9146 78.7857C26.9146 78.4046 27.2231 78.0959 27.6043 78.0959Z" fill="#888888" fill-opacity="0.57"/>
<path fill-rule="evenodd" clip-rule="evenodd" d="M27.6043 73.9878C27.9847 73.9878 28.2941 74.2964 28.2941 74.6775C28.2941 75.0583 27.9856 75.3674 27.6043 75.3674C27.2231 75.3674 26.9146 75.0583 26.9146 74.6775C26.9146 74.2964 27.2231 73.9878 27.6043 73.9878Z" fill="#888888" fill-opacity="0.57"/>
<path fill-rule="evenodd" clip-rule="evenodd" d="M32.0257 82.2068C32.406 82.2068 32.7154 82.5154 32.7154 82.8965C32.7154 83.2773 32.407 83.5864 32.0257 83.5864C31.6444 83.5864 31.3359 83.2773 31.3359 82.8965C31.3359 82.5154 31.6444 82.2068 32.0257 82.2068Z" fill="#888888" fill-opacity="0.57"/>
<path fill-rule="evenodd" clip-rule="evenodd" d="M32.0257 78.0959C32.406 78.0959 32.7154 78.4046 32.7154 78.7857C32.7154 79.1665 32.407 79.4756 32.0257 79.4756C31.6444 79.4756 31.3359 79.1665 31.3359 78.7857C31.3359 78.4046 31.6444 78.0959 32.0257 78.0959Z" fill="#888888" fill-opacity="0.57"/>
<path fill-rule="evenodd" clip-rule="evenodd" d="M32.0257 73.9878C32.406 73.9878 32.7154 74.2964 32.7154 74.6775C32.7154 75.0583 32.407 75.3674 32.0257 75.3674C31.6444 75.3674 31.3359 75.0583 31.3359 74.6775C31.3359 74.2964 31.6444 73.9878 32.0257 73.9878Z" fill="#888888" fill-opacity="0.57"/>
<path d="M39.0276 140.133V16.3792" stroke="#252527"/>
<path d="M57.6844 30.2766V38.218H56.5834L52.5468 32.3938H52.4731V38.218H51.2747V30.2766H52.3839L56.4241 36.1086H56.4978V30.2766H57.6844ZM61.0722 38.3499C60.6946 38.3499 60.3534 38.2801 60.0485 38.1405C59.7437 37.9983 59.5017 37.7928 59.3233 37.5239C59.1477 37.2551 59.0603 36.9254 59.0603 36.5352C59.0603 36.199 59.1249 35.9225 59.2542 35.7053C59.3834 35.4882 59.5571 35.3163 59.7773 35.1896C59.9966 35.063 60.2423 34.9673 60.5144 34.9026C60.7856 34.838 61.0622 34.7889 61.3443 34.7553C61.701 34.7139 61.9904 34.6803 62.2124 34.6545C62.4344 34.6261 62.5964 34.5808 62.6974 34.5188C62.7984 34.4567 62.8485 34.3559 62.8485 34.2163V34.1891C62.8485 33.8505 62.7529 33.5881 62.5618 33.402C62.3725 33.2158 62.0914 33.1228 61.7165 33.1228C61.3261 33.1228 61.0185 33.2094 60.7929 33.3826C60.5708 33.5533 60.417 33.7433 60.3315 33.9526L59.2423 33.7045C59.3715 33.3425 59.5599 33.0504 59.8083 32.8281C60.0594 32.6032 60.347 32.4404 60.6727 32.3396C60.9985 32.2361 61.3416 32.1844 61.701 32.1844C61.9385 32.1844 62.1906 32.2129 62.4572 32.2698C62.7256 32.324 62.9768 32.4248 63.2088 32.5722C63.4445 32.7196 63.6365 32.9302 63.7866 33.2043C63.9368 33.4757 64.0114 33.8285 64.0114 34.2628V38.218H62.8794V37.4037H62.833C62.7575 37.5537 62.6455 37.701 62.4954 37.8458C62.3452 37.9905 62.1533 38.1108 61.9176 38.2064C61.6828 38.302 61.4007 38.3499 61.0722 38.3499ZM61.3243 37.4193C61.6446 37.4193 61.9194 37.3559 62.1469 37.2293C62.3762 37.1025 62.5509 36.9371 62.6701 36.7329C62.7911 36.5261 62.8521 36.305 62.8521 36.0698V35.3021C62.8112 35.3434 62.7311 35.3822 62.6119 35.4184C62.4954 35.452 62.3626 35.4817 62.2124 35.5076C62.0623 35.5309 61.9167 35.5528 61.7747 35.5734C61.6318 35.5915 61.5135 35.6071 61.4171 35.62C61.1923 35.6484 60.9867 35.6963 60.801 35.7635C60.6172 35.8307 60.4699 35.9277 60.3588 36.0543C60.2505 36.1784 60.1959 36.3438 60.1959 36.5506C60.1959 36.8376 60.3024 37.0547 60.5144 37.2021C60.7264 37.3468 60.9958 37.4193 61.3243 37.4193ZM65.5556 38.218V32.2619H66.6685V33.2314H66.7422C66.8668 32.9031 67.0698 32.6471 67.3509 32.4636C67.633 32.2775 67.9707 32.1844 68.3638 32.1844C68.7614 32.1844 69.0954 32.2775 69.3638 32.4636C69.635 32.6498 69.8361 32.9056 69.9653 33.2314H70.0272C70.1691 32.9135 70.3957 32.66 70.7051 32.4714C71.0154 32.2801 71.3857 32.1844 71.8143 32.1844C72.3549 32.1844 72.7953 32.3538 73.1365 32.6924C73.4805 33.031 73.6525 33.5416 73.6525 34.2241V38.218H72.4931V34.3326C72.4931 33.9293 72.383 33.6372 72.1637 33.4563C71.9435 33.2754 71.6815 33.1848 71.3766 33.1848C70.999 33.1848 70.7051 33.3012 70.4958 33.5339C70.2865 33.7639 70.1819 34.0599 70.1819 34.4218V38.218H69.0262V34.2589C69.0262 33.9358 68.9261 33.676 68.7241 33.4795C68.5221 33.2831 68.26 33.1848 67.937 33.1848C67.7168 33.1848 67.5139 33.2431 67.3282 33.3593C67.1444 33.4731 66.9961 33.6321 66.8824 33.8363C66.7713 34.0405 66.7158 34.277 66.7158 34.5459V38.218H65.5556ZM77.7737 38.3382C77.1868 38.3382 76.6817 38.2128 76.2577 37.9621C75.8364 37.7087 75.5106 37.3533 75.2804 36.8958C75.0529 36.4356 74.9392 35.8967 74.9392 35.2788C74.9392 34.6687 75.0529 34.131 75.2804 33.6657C75.5106 33.2004 75.8309 32.8371 76.2422 32.5761C76.6553 32.315 77.1385 32.1844 77.6918 32.1844C78.0284 32.1844 78.3542 32.24 78.6691 32.3512C78.9848 32.4623 79.2678 32.6368 79.519 32.8746C79.7692 33.1125 79.9667 33.4214 80.1123 33.8014C80.257 34.1788 80.3288 34.6376 80.3288 35.178V35.589H75.5943V34.7204H79.1932C79.1932 34.4153 79.1304 34.1452 79.0067 33.91C78.8829 33.6722 78.7082 33.4847 78.4834 33.3477C78.2605 33.2108 77.9994 33.1422 77.7 33.1422C77.3742 33.1422 77.0894 33.2223 76.8464 33.3826C76.6062 33.5403 76.4206 33.7471 76.2886 34.003C76.1594 34.2564 76.0948 34.5317 76.0948 34.829V35.5076C76.0948 35.9057 76.164 36.2443 76.3041 36.5235C76.4461 36.8027 76.6435 37.016 76.8974 37.1633C77.1503 37.3081 77.447 37.3804 77.7855 37.3804C78.0048 37.3804 78.205 37.3495 78.3861 37.2874C78.5671 37.2227 78.7237 37.1271 78.8556 37.0004C78.9875 36.8738 79.0886 36.7174 79.1577 36.5313L80.2551 36.729C80.1678 37.0521 80.0094 37.3352 79.7819 37.5782C79.5572 37.8187 79.2742 38.006 78.933 38.1405C78.5945 38.2724 78.2077 38.3382 77.7737 38.3382Z" fill="url(#paint3_linear_4_178)" fill-opacity="0.8"/>
<path d="M233.302 45.4976H57.6817C53.6613 45.4976 50.4021 48.7568 50.4021 52.7772V67.3364C50.4021 71.3568 53.6613 74.616 57.6817 74.616H233.302C237.323 74.616 240.582 71.3568 240.582 67.3364V52.7772C240.582 48.7568 237.323 45.4976 233.302 45.4976Z" fill="white" fill-opacity="0.03"/>
<path d="M66.6266 57.7406C66.5793 57.3477 66.3909 57.0427 66.0597 56.8256C65.7294 56.6084 65.3236 56.4998 64.8422 56.4998C64.491 56.4998 64.1834 56.5567 63.9195 56.6704C63.6583 56.7842 63.4545 56.9406 63.3071 57.1396C63.1624 57.3387 63.0896 57.5649 63.0896 57.8182C63.0896 58.0302 63.1406 58.2124 63.2407 58.3649C63.3444 58.5149 63.4763 58.6403 63.6365 58.7411C63.7966 58.8393 63.965 58.9207 64.1406 58.9853C64.3162 59.0474 64.4782 59.0978 64.6256 59.1366L65.4319 59.3538C65.6384 59.408 65.8686 59.483 66.1225 59.5786C66.3782 59.6743 66.6221 59.8048 66.855 59.9703C67.0898 60.1332 67.2845 60.3425 67.4365 60.5985C67.5893 60.8544 67.6658 61.1685 67.6658 61.5408C67.6658 61.9699 67.553 62.3576 67.3282 62.704C67.1062 63.0505 66.7804 63.3257 66.3509 63.53C65.9241 63.7342 65.4064 63.8363 64.7958 63.8363C64.227 63.8363 63.7348 63.7446 63.3189 63.561C62.9049 63.3774 62.5791 63.1215 62.3416 62.7932C62.1059 62.4649 61.9731 62.0836 61.9421 61.6493H62.9349C62.9604 61.9491 63.0614 62.1974 63.237 62.3938C63.4153 62.5877 63.6401 62.7324 63.9122 62.8282C64.1861 62.9212 64.4809 62.9677 64.7958 62.9677C65.1634 62.9677 65.4928 62.9082 65.7849 62.7893C66.077 62.6678 66.3082 62.4998 66.4792 62.2853C66.6494 62.0681 66.7349 61.8147 66.7349 61.5252C66.7349 61.2616 66.6612 61.047 66.5138 60.8815C66.3664 60.7161 66.1726 60.5817 65.9323 60.4783C65.6921 60.3748 65.4319 60.2844 65.1525 60.2069L64.1752 59.9277C63.5555 59.7492 63.0641 59.4946 62.702 59.1638C62.3398 58.8328 62.1587 58.3999 62.1587 57.8647C62.1587 57.4201 62.2797 57.0323 62.52 56.7015C62.7629 56.368 63.0887 56.1094 63.4972 55.9259C63.9076 55.7398 64.3672 55.6467 64.8731 55.6467C65.3854 55.6467 65.8404 55.7385 66.2381 55.9221C66.6366 56.103 66.9515 56.3512 67.1844 56.6665C67.4201 56.9819 67.5438 57.34 67.5566 57.7406H66.6266ZM70.0372 60.1138V63.6967H69.1226V55.7553H70.0372V58.6713H70.1154C70.2546 58.3637 70.4639 58.1193 70.7433 57.9384C71.0254 57.7549 71.4003 57.6631 71.868 57.6631C72.2739 57.6631 72.6287 57.7445 72.9345 57.9074C73.2393 58.0677 73.4759 58.3145 73.6442 58.648C73.8144 58.9789 73.8999 59.4003 73.8999 59.9121V63.6967H72.9845V59.9742C72.9845 59.5011 72.8617 59.1353 72.616 58.8768C72.373 58.6157 72.0363 58.4851 71.6041 58.4851C71.3047 58.4851 71.0354 58.5485 70.7979 58.6751C70.5622 58.8018 70.3766 58.9867 70.2392 59.2297C70.1045 59.4727 70.0372 59.7674 70.0372 60.1138ZM77.9939 63.8208C77.4561 63.8208 76.9838 63.6928 76.5779 63.4369C76.1748 63.1809 75.86 62.823 75.6325 62.3628C75.4068 61.9026 75.2949 61.365 75.2949 60.7497C75.2949 60.1292 75.4068 59.5877 75.6325 59.125C75.86 58.6622 76.1748 58.3029 76.5779 58.047C76.9838 57.791 77.4561 57.6631 77.9939 57.6631C78.5317 57.6631 79.0021 57.791 79.4052 58.047C79.811 58.3029 80.1259 58.6622 80.3516 59.125C80.5791 59.5877 80.6928 60.1292 80.6928 60.7497C80.6928 61.365 80.5791 61.9026 80.3516 62.3628C80.1259 62.823 79.811 63.1809 79.4052 63.4369C79.0021 63.6928 78.5317 63.8208 77.9939 63.8208ZM77.9939 62.9988C78.4024 62.9988 78.7382 62.894 79.0021 62.6847C79.2651 62.4753 79.4607 62.1999 79.5872 61.8587C79.7137 61.5175 79.7774 61.1478 79.7774 60.7497C79.7774 60.3516 79.7137 59.9806 79.5872 59.6369C79.4607 59.293 79.2651 59.0151 79.0021 58.8032C78.7382 58.5911 78.4024 58.4851 77.9939 58.4851C77.5853 58.4851 77.2495 58.5911 76.9856 58.8032C76.7217 59.0151 76.527 59.293 76.3996 59.6369C76.2731 59.9806 76.2103 60.3516 76.2103 60.7497C76.2103 61.1478 76.2731 61.5175 76.3996 61.8587C76.527 62.1999 76.7217 62.4753 76.9856 62.6847C77.2495 62.894 77.5853 62.9988 77.9939 62.9988ZM82.0896 63.6967V57.7406H82.9732V58.6403H83.0359C83.1442 58.3456 83.3408 58.1064 83.6247 57.9229C83.9095 57.7393 84.2298 57.6476 84.5865 57.6476C84.6539 57.6476 84.7376 57.6489 84.8386 57.6514C84.9396 57.6541 85.016 57.6579 85.0679 57.6631V58.5937C85.0361 58.586 84.9651 58.5743 84.8541 58.5588C84.7458 58.5407 84.6302 58.5317 84.5092 58.5317C84.2198 58.5317 83.9614 58.5924 83.7339 58.7139C83.5082 58.8328 83.3299 58.9983 83.1988 59.2103C83.0696 59.4197 83.0041 59.6588 83.0041 59.9277V63.6967H82.0896ZM89.1154 57.7406V58.5162H86.0288V57.7406H89.1154ZM86.9288 56.3137H87.8442V61.9905C87.8442 62.2491 87.8815 62.443 87.9561 62.5722C88.0335 62.6989 88.1317 62.7842 88.2509 62.8282C88.3729 62.8695 88.5003 62.8901 88.6349 62.8901C88.7359 62.8901 88.8188 62.885 88.8834 62.8747C88.948 62.8617 88.9998 62.8514 89.038 62.8436L89.2246 63.6657C89.1627 63.689 89.0754 63.7122 88.9643 63.7355C88.8533 63.7613 88.7123 63.7742 88.5421 63.7742C88.2837 63.7742 88.0298 63.7186 87.7814 63.6075C87.5366 63.4963 87.3319 63.327 87.169 63.0995C87.0089 62.872 86.9288 62.5851 86.9288 62.2387V56.3137ZM95.3159 63.8363C94.9391 63.8363 94.5961 63.7652 94.2885 63.623C93.981 63.4782 93.7371 63.2701 93.556 62.9988C93.3749 62.7247 93.2839 62.3938 93.2839 62.006C93.2839 61.6648 93.3513 61.3883 93.4859 61.1762C93.6206 60.9617 93.7999 60.7937 94.0247 60.6721C94.2494 60.5506 94.4978 60.4602 94.769 60.4007C95.0438 60.3387 95.3186 60.2896 95.5952 60.2534C95.9574 60.2069 96.2504 60.1719 96.4752 60.1487C96.7027 60.1228 96.8683 60.0802 96.972 60.0207C97.0776 59.9613 97.1313 59.8578 97.1313 59.7105V59.6794C97.1313 59.2969 97.0266 58.9996 96.8164 58.7876C96.6099 58.5757 96.2959 58.4697 95.8746 58.4697C95.4378 58.4697 95.0948 58.5653 94.8473 58.7566C94.5989 58.9479 94.4242 59.1521 94.3231 59.3693L93.455 59.059C93.6097 58.6972 93.8172 58.4153 94.0756 58.2137C94.3368 58.0095 94.6207 57.8673 94.9283 57.7872C95.2385 57.7045 95.5434 57.6631 95.8437 57.6631C96.0347 57.6631 96.255 57.6864 96.5025 57.7329C96.7536 57.7768 96.9948 57.8686 97.2277 58.0082C97.4634 58.1478 97.6582 58.3585 97.8138 58.6403C97.9685 58.922 98.0457 59.2995 98.0457 59.7725V63.6967H97.1313V62.8901H97.084C97.0221 63.0194 96.9192 63.1577 96.7746 63.3051C96.629 63.4524 96.437 63.5778 96.1967 63.6812C95.9556 63.7846 95.6626 63.8363 95.3159 63.8363ZM95.456 63.0142C95.8173 63.0142 96.1231 62.9432 96.3706 62.801C96.6217 62.6588 96.8101 62.4753 96.9375 62.2503C97.0667 62.0255 97.1313 61.7889 97.1313 61.5408V60.7031C97.0922 60.7497 97.0066 60.7923 96.8746 60.8312C96.7454 60.8673 96.5962 60.8996 96.4252 60.9281C96.2568 60.9539 96.093 60.9772 95.9329 60.9979C95.7754 61.016 95.6471 61.0315 95.5489 61.0444C95.3114 61.0754 95.0884 61.1258 94.8818 61.1956C94.678 61.2629 94.5124 61.365 94.3859 61.502C94.2612 61.6364 94.1993 61.8199 94.1993 62.0526C94.1993 62.3705 94.3167 62.611 94.5524 62.7738C94.7899 62.9341 95.0911 63.0142 95.456 63.0142ZM100.632 60.1138V63.6967H99.7164V57.7406H100.6V58.6713H100.678C100.817 58.3689 101.03 58.1258 101.314 57.9423C101.598 57.7562 101.965 57.6631 102.415 57.6631C102.818 57.6631 103.172 57.7458 103.474 57.9112C103.777 58.0741 104.011 58.3223 104.18 58.6558C104.347 58.9867 104.432 59.4055 104.432 59.9121V63.6967H103.516V59.9742C103.516 59.5063 103.395 59.1418 103.152 58.8807C102.909 58.617 102.576 58.4851 102.152 58.4851C101.859 58.4851 101.598 58.5485 101.368 58.6751C101.141 58.8018 100.961 58.9867 100.829 59.2297C100.697 59.4727 100.632 59.7674 100.632 60.1138ZM110.323 59.0746L109.5 59.3072C109.449 59.1702 109.373 59.0371 109.272 58.9078C109.174 58.776 109.039 58.6674 108.869 58.5821C108.698 58.4968 108.479 58.4541 108.214 58.4541C107.849 58.4541 107.545 58.5382 107.302 58.7062C107.062 58.8716 106.942 59.0823 106.942 59.3382C106.942 59.5657 107.024 59.7454 107.19 59.8773C107.355 60.009 107.614 60.119 107.965 60.2069L108.849 60.424C109.382 60.5533 109.779 60.751 110.04 61.0173C110.301 61.281 110.431 61.6208 110.431 62.037C110.431 62.3783 110.333 62.6834 110.136 62.9522C109.943 63.2211 109.671 63.433 109.322 63.5881C108.974 63.7432 108.568 63.8208 108.104 63.8208C107.498 63.8208 106.994 63.689 106.597 63.4253C106.198 63.1616 105.946 62.7764 105.841 62.2697L106.709 62.0526C106.791 62.3732 106.948 62.6136 107.178 62.7738C107.41 62.9341 107.714 63.0142 108.089 63.0142C108.516 63.0142 108.854 62.9238 109.105 62.7428C109.358 62.5593 109.485 62.3395 109.485 62.0836C109.485 61.8768 109.413 61.7036 109.268 61.564C109.124 61.4218 108.901 61.3158 108.601 61.246L107.609 61.0134C107.063 60.8841 106.662 60.6838 106.407 60.4123C106.153 60.1383 106.026 59.7958 106.026 59.3848C106.026 59.0487 106.121 58.7514 106.309 58.4929C106.5 58.2344 106.76 58.0314 107.089 57.8841C107.419 57.7368 107.794 57.6631 108.214 57.6631C108.802 57.6631 109.266 57.7924 109.601 58.0509C109.94 58.3093 110.181 58.6506 110.323 59.0746ZM113.158 63.6967L111.344 57.7406H112.305L113.592 62.3007H113.654L114.926 57.7406H115.904L117.16 62.2853H117.222L118.51 57.7406H119.471L117.656 63.6967H116.756L115.454 59.1211H115.361L114.058 63.6967H113.158ZM122.976 63.8208C122.402 63.8208 121.907 63.6942 121.491 63.4407C121.077 63.1849 120.758 62.8282 120.533 62.3705C120.311 61.9104 120.199 61.3753 120.199 60.7652C120.199 60.1552 120.311 59.6174 120.533 59.1521C120.758 58.6842 121.071 58.3197 121.471 58.0586C121.874 57.7949 122.344 57.6631 122.882 57.6631C123.193 57.6631 123.499 57.7148 123.801 57.8182C124.104 57.9216 124.379 58.0897 124.628 58.3223C124.876 58.5524 125.073 58.8574 125.221 59.2374C125.368 59.6174 125.442 60.0853 125.442 60.6411V61.0289H120.85V60.2379H124.511C124.511 59.9018 124.444 59.6019 124.31 59.3382C124.178 59.0746 123.989 58.8665 123.743 58.7139C123.5 58.5614 123.213 58.4851 122.882 58.4851C122.518 58.4851 122.203 58.5757 121.937 58.7566C121.673 58.9349 121.47 59.1676 121.328 59.4546C121.185 59.7415 121.114 60.0492 121.114 60.3775V60.9048C121.114 61.3546 121.192 61.7359 121.347 62.0487C121.505 62.3589 121.723 62.5955 122.002 62.7583C122.282 62.9186 122.606 62.9988 122.976 62.9988C123.216 62.9988 123.433 62.9651 123.628 62.898C123.823 62.8282 123.993 62.7247 124.135 62.5877C124.277 62.4481 124.387 62.2749 124.465 62.0681L125.349 62.3163C125.255 62.6161 125.099 62.8798 124.88 63.1073C124.659 63.3322 124.388 63.508 124.065 63.6346C123.742 63.7588 123.379 63.8208 122.976 63.8208ZM126.834 63.6967V57.7406H127.718V58.6403H127.78C127.889 58.3456 128.085 58.1064 128.369 57.9229C128.654 57.7393 128.974 57.6476 129.331 57.6476C129.399 57.6476 129.482 57.6489 129.583 57.6514C129.684 57.6541 129.761 57.6579 129.812 57.6631V58.5937C129.781 58.586 129.71 58.5743 129.599 58.5588C129.49 58.5407 129.375 58.5317 129.254 58.5317C128.964 58.5317 128.705 58.5924 128.478 58.7139C128.253 58.8328 128.075 58.9983 127.943 59.2103C127.813 59.4197 127.749 59.6588 127.749 59.9277V63.6967H126.834Z" fill="url(#paint4_linear_4_178)" fill-opacity="0.4"/>
<path d="M51.9689 84.8738L54.1792 91.342H54.2684L56.4787 84.8738H57.7736L54.9154 92.8152H53.5313L50.6731 84.8738H51.9689ZM59.9738 92.9471C59.5962 92.9471 59.255 92.8771 58.9501 92.7379C58.6453 92.5959 58.4032 92.3903 58.2249 92.1209C58.0493 91.8525 57.9619 91.5231 57.9619 91.1327C57.9619 90.7962 58.0265 90.5197 58.1557 90.3025C58.2849 90.0853 58.4588 89.9135 58.679 89.7868C58.8983 89.6601 59.144 89.5645 59.416 89.4998C59.6872 89.4352 59.9638 89.3861 60.245 89.3525C60.6026 89.3111 60.892 89.2775 61.114 89.2517C61.336 89.2233 61.498 89.1779 61.599 89.116C61.6991 89.0539 61.7501 88.9531 61.7501 88.8135V88.7863C61.7501 88.4477 61.6545 88.1853 61.4635 87.9992C61.2742 87.813 60.9921 87.72 60.6181 87.72C60.2277 87.72 59.9201 87.8066 59.6945 87.9798C59.4724 88.1504 59.3187 88.3404 59.2331 88.5498L58.1439 88.3017C58.2731 87.9397 58.4615 87.6476 58.7099 87.4253C58.9611 87.2003 59.2486 87.0376 59.5744 86.9367C59.9001 86.8333 60.2432 86.7816 60.6026 86.7816C60.8401 86.7816 61.0922 86.8101 61.3579 86.8669C61.6272 86.9212 61.8784 87.022 62.1104 87.1694C62.3461 87.3167 62.5381 87.5274 62.6883 87.8015C62.8384 88.0729 62.913 88.4257 62.913 88.86V92.8152H61.781V92.0008H61.7346C61.6591 92.1509 61.5472 92.2984 61.397 92.443C61.2469 92.5877 61.0549 92.7078 60.8192 92.8034C60.5844 92.8989 60.3023 92.9471 59.9738 92.9471ZM60.2259 92.0163C60.5462 92.0163 60.821 91.9535 61.0485 91.8261C61.2778 91.6996 61.4525 91.534 61.5718 91.3302C61.6928 91.1236 61.7537 90.9022 61.7537 90.667V89.8993C61.7128 89.9406 61.6327 89.9793 61.5135 90.0156C61.397 90.0491 61.2641 90.0789 61.114 90.1047C60.9639 90.128 60.8183 90.15 60.6754 90.1706C60.5334 90.1887 60.4152 90.2043 60.3187 90.2172C60.094 90.2456 59.8883 90.2935 59.7027 90.3607C59.5189 90.4279 59.3714 90.5249 59.2604 90.6515C59.1521 90.7755 59.0976 90.941 59.0976 91.1482C59.0976 91.4348 59.204 91.6523 59.416 91.7997C59.6271 91.9444 59.8974 92.0163 60.2259 92.0163ZM65.6174 84.8738V92.8152H64.4572V84.8738H65.6174ZM70.9498 90.3451V86.8591H72.1127V92.8152H70.9735V91.7833H70.9107C70.7742 92.1018 70.554 92.3666 70.2519 92.5786C69.9516 92.7879 69.5785 92.8925 69.1308 92.8925C68.7486 92.8925 68.4101 92.8088 68.1153 92.6405C67.8232 92.4703 67.5929 92.2183 67.4246 91.8843C67.2599 91.5513 67.1771 91.1391 67.1771 90.6476V86.8591H68.3364V90.508C68.3364 90.9139 68.4483 91.2373 68.674 91.4776C68.8988 91.7178 69.1909 91.8379 69.5503 91.8379C69.7669 91.8379 69.9825 91.7833 70.1973 91.675C70.4148 91.5668 70.594 91.402 70.7369 91.1828C70.8815 90.963 70.9525 90.6838 70.9498 90.3451ZM76.2376 92.9353C75.6516 92.9353 75.1456 92.8097 74.7216 92.5595C74.3003 92.3056 73.9745 91.9507 73.7443 91.493C73.5168 91.0326 73.403 90.4938 73.403 89.876C73.403 89.2658 73.5168 88.7282 73.7443 88.2629C73.9745 87.7975 74.2948 87.4343 74.7061 87.1732C75.1201 86.9122 75.6033 86.7816 76.1566 86.7816C76.4924 86.7816 76.8182 86.8372 77.1339 86.9484C77.4488 87.0595 77.7317 87.234 77.9829 87.4718C78.234 87.7096 78.4315 88.0186 78.5762 88.3986C78.7208 88.776 78.7937 89.2348 78.7937 89.7751V90.1862H74.0591V89.3175H77.6571C77.6571 89.0125 77.5952 88.7424 77.4715 88.5071C77.3468 88.2694 77.1721 88.0819 76.9474 87.9449C76.7253 87.8079 76.4641 87.7394 76.1639 87.7394C75.8381 87.7394 75.5542 87.8195 75.3113 87.9798C75.071 88.1375 74.8845 88.3442 74.7525 88.6002C74.6233 88.8535 74.5587 89.1289 74.5587 89.4262V90.1047C74.5587 90.5028 74.6288 90.8415 74.768 91.1209C74.9108 91.4002 75.1083 91.6132 75.3613 91.7606C75.6152 91.9053 75.9109 91.978 76.2494 91.978C76.4697 91.978 76.6698 91.9462 76.8509 91.8843C77.032 91.8197 77.1876 91.7242 77.3195 91.5977C77.4515 91.4712 77.5525 91.3147 77.6225 91.1282L78.72 91.3265C78.6317 91.6496 78.4742 91.9325 78.2468 92.1755C78.022 92.4157 77.739 92.6032 77.3978 92.7379C77.0584 92.8698 76.6726 92.9353 76.2376 92.9353Z" fill="url(#paint5_linear_4_178)" fill-opacity="0.8"/>
<path d="M233.302 100.095H57.6817C53.6613 100.095 50.4021 103.354 50.4021 107.374V121.934C50.4021 125.954 53.6613 129.213 57.6817 129.213H233.302C237.323 129.213 240.582 125.954 240.582 121.934V107.374C240.582 103.354 237.323 100.095 233.302 100.095Z" fill="white" fill-opacity="0.03"/>
<path d="M66.6266 112.338C66.5793 111.945 66.3909 111.639 66.0597 111.423C65.7294 111.205 65.3236 111.097 64.8422 111.097C64.491 111.097 64.1834 111.153 63.9195 111.267C63.6583 111.381 63.4545 111.537 63.3071 111.737C63.1624 111.936 63.0896 112.162 63.0896 112.415C63.0896 112.627 63.1406 112.809 63.2407 112.962C63.3444 113.112 63.4763 113.237 63.6365 113.338C63.7966 113.436 63.965 113.517 64.1406 113.582C64.3162 113.645 64.4782 113.695 64.6256 113.734L65.4319 113.951C65.6384 114.005 65.8686 114.08 66.1225 114.175C66.3782 114.272 66.6221 114.402 66.855 114.567C67.0898 114.73 67.2845 114.94 67.4365 115.195C67.5893 115.451 67.6658 115.766 67.6658 116.138C67.6658 116.567 67.553 116.954 67.3282 117.301C67.1062 117.648 66.7804 117.922 66.3509 118.127C65.9241 118.331 65.4064 118.433 64.7958 118.433C64.227 118.433 63.7348 118.342 63.3189 118.158C62.9049 117.974 62.5791 117.719 62.3416 117.39C62.1059 117.062 61.9731 116.68 61.9421 116.246H62.9349C62.9604 116.547 63.0614 116.794 63.237 116.991C63.4153 117.185 63.6401 117.329 63.9122 117.425C64.1861 117.518 64.4809 117.565 64.7958 117.565C65.1634 117.565 65.4928 117.506 65.7849 117.387C66.077 117.265 66.3082 117.097 66.4792 116.882C66.6494 116.665 66.7349 116.412 66.7349 116.123C66.7349 115.859 66.6612 115.644 66.5138 115.478C66.3664 115.313 66.1726 115.179 65.9323 115.075C65.6921 114.972 65.4319 114.881 65.1525 114.804L64.1752 114.525C63.5555 114.346 63.0641 114.092 62.702 113.76C62.3398 113.43 62.1587 112.997 62.1587 112.462C62.1587 112.017 62.2797 111.629 62.52 111.298C62.7629 110.965 63.0887 110.707 63.4972 110.523C63.9076 110.337 64.3672 110.243 64.8731 110.243C65.3854 110.243 65.8404 110.335 66.2381 110.519C66.6366 110.7 66.9515 110.949 67.1844 111.263C67.4201 111.579 67.5438 111.937 67.5566 112.338H66.6266ZM70.0372 114.71V118.294H69.1226V110.353H70.0372V113.268H70.1154C70.2546 112.961 70.4639 112.717 70.7433 112.536C71.0254 112.352 71.4003 112.26 71.868 112.26C72.2739 112.26 72.6287 112.342 72.9345 112.505C73.2393 112.665 73.4759 112.911 73.6442 113.245C73.8144 113.576 73.8999 113.997 73.8999 114.509V118.294H72.9845V114.571C72.9845 114.098 72.8617 113.732 72.616 113.474C72.373 113.213 72.0363 113.082 71.6041 113.082C71.3047 113.082 71.0354 113.145 70.7979 113.273C70.5622 113.399 70.3766 113.584 70.2392 113.827C70.1045 114.07 70.0372 114.365 70.0372 114.71ZM77.9939 118.418C77.4561 118.418 76.9838 118.29 76.5779 118.034C76.1748 117.778 75.86 117.42 75.6325 116.96C75.4068 116.499 75.2949 115.962 75.2949 115.346C75.2949 114.727 75.4068 114.184 75.6325 113.722C75.86 113.259 76.1748 112.9 76.5779 112.644C76.9838 112.388 77.4561 112.26 77.9939 112.26C78.5317 112.26 79.0021 112.388 79.4052 112.644C79.811 112.9 80.1259 113.259 80.3516 113.722C80.5791 114.184 80.6928 114.727 80.6928 115.346C80.6928 115.962 80.5791 116.499 80.3516 116.96C80.1259 117.42 79.811 117.778 79.4052 118.034C79.0021 118.29 78.5317 118.418 77.9939 118.418ZM77.9939 117.596C78.4024 117.596 78.7382 117.491 79.0021 117.282C79.2651 117.073 79.4607 116.797 79.5872 116.456C79.7137 116.114 79.7774 115.745 79.7774 115.346C79.7774 114.949 79.7137 114.578 79.5872 114.234C79.4607 113.89 79.2651 113.612 79.0021 113.4C78.7382 113.188 78.4024 113.082 77.9939 113.082C77.5853 113.082 77.2495 113.188 76.9856 113.4C76.7217 113.612 76.527 113.89 76.3996 114.234C76.2731 114.578 76.2103 114.949 76.2103 115.346C76.2103 115.745 76.2731 116.114 76.3996 116.456C76.527 116.797 76.7217 117.073 76.9856 117.282C77.2495 117.491 77.5853 117.596 77.9939 117.596ZM82.0896 118.294V112.338H82.9732V113.237H83.0359C83.1442 112.942 83.3408 112.704 83.6247 112.52C83.9095 112.336 84.2298 112.244 84.5865 112.244C84.6539 112.244 84.7376 112.246 84.8386 112.249C84.9396 112.251 85.016 112.255 85.0679 112.26V113.191C85.0361 113.183 84.9651 113.172 84.8541 113.156C84.7458 113.138 84.6302 113.129 84.5092 113.129C84.2198 113.129 83.9614 113.19 83.7339 113.311C83.5082 113.43 83.3299 113.596 83.1988 113.808C83.0696 114.017 83.0041 114.255 83.0041 114.525V118.294H82.0896ZM89.1154 112.338V113.113H86.0288V112.338H89.1154ZM86.9288 110.91H87.8442V116.588C87.8442 116.846 87.8815 117.04 87.9561 117.169C88.0335 117.296 88.1317 117.381 88.2509 117.425C88.3729 117.467 88.5003 117.488 88.6349 117.488C88.7359 117.488 88.8188 117.482 88.8834 117.472C88.948 117.458 88.9998 117.448 89.038 117.44L89.2246 118.263C89.1627 118.286 89.0754 118.309 88.9643 118.333C88.8533 118.358 88.7123 118.371 88.5421 118.371C88.2837 118.371 88.0298 118.316 87.7814 118.205C87.5366 118.094 87.3319 117.924 87.169 117.697C87.0089 117.469 86.9288 117.182 86.9288 116.836V110.91ZM95.3159 118.433C94.9391 118.433 94.5961 118.362 94.2885 118.22C93.981 118.075 93.7371 117.867 93.556 117.596C93.3749 117.322 93.2839 116.991 93.2839 116.603C93.2839 116.262 93.3513 115.985 93.4859 115.773C93.6206 115.558 93.7999 115.391 94.0247 115.269C94.2494 115.148 94.4978 115.057 94.769 114.998C95.0438 114.936 95.3186 114.887 95.5952 114.85C95.9574 114.804 96.2504 114.769 96.4752 114.746C96.7027 114.719 96.8683 114.678 96.972 114.618C97.0776 114.558 97.1313 114.455 97.1313 114.307V114.276C97.1313 113.894 97.0266 113.597 96.8164 113.385C96.6099 113.173 96.2959 113.067 95.8746 113.067C95.4378 113.067 95.0948 113.163 94.8473 113.354C94.5989 113.545 94.4242 113.749 94.3231 113.966L93.455 113.656C93.6097 113.294 93.8172 113.012 94.0756 112.81C94.3368 112.607 94.6207 112.465 94.9283 112.385C95.2385 112.302 95.5434 112.26 95.8437 112.26C96.0347 112.26 96.255 112.284 96.5025 112.33C96.7536 112.374 96.9948 112.466 97.2277 112.606C97.4634 112.745 97.6582 112.956 97.8138 113.237C97.9685 113.519 98.0457 113.897 98.0457 114.369V118.294H97.1313V117.488H97.084C97.0221 117.617 96.9192 117.755 96.7746 117.902C96.629 118.05 96.437 118.175 96.1967 118.278C95.9556 118.382 95.6626 118.433 95.3159 118.433ZM95.456 117.611C95.8173 117.611 96.1231 117.54 96.3706 117.398C96.6217 117.256 96.8101 117.073 96.9375 116.848C97.0667 116.622 97.1313 116.386 97.1313 116.138V115.3C97.0922 115.346 97.0066 115.389 96.8746 115.428C96.7454 115.465 96.5962 115.497 96.4252 115.525C96.2568 115.551 96.093 115.574 95.9329 115.595C95.7754 115.613 95.6471 115.629 95.5489 115.641C95.3114 115.672 95.0884 115.723 94.8818 115.792C94.678 115.86 94.5124 115.962 94.3859 116.099C94.2612 116.234 94.1993 116.417 94.1993 116.649C94.1993 116.968 94.3167 117.208 94.5524 117.371C94.7899 117.531 95.0911 117.611 95.456 117.611ZM100.632 114.71V118.294H99.7164V112.338H100.6V113.268H100.678C100.817 112.966 101.03 112.723 101.314 112.539C101.598 112.354 101.965 112.26 102.415 112.26C102.818 112.26 103.172 112.343 103.474 112.508C103.777 112.671 104.011 112.92 104.18 113.253C104.347 113.584 104.432 114.002 104.432 114.509V118.294H103.516V114.571C103.516 114.103 103.395 113.739 103.152 113.477C102.909 113.214 102.576 113.082 102.152 113.082C101.859 113.082 101.598 113.145 101.368 113.273C101.141 113.399 100.961 113.584 100.829 113.827C100.697 114.07 100.632 114.365 100.632 114.71ZM110.323 113.671L109.5 113.904C109.449 113.768 109.373 113.634 109.272 113.505C109.174 113.373 109.039 113.264 108.869 113.179C108.698 113.094 108.479 113.052 108.214 113.052C107.849 113.052 107.545 113.135 107.302 113.304C107.062 113.468 106.942 113.679 106.942 113.935C106.942 114.163 107.024 114.343 107.19 114.475C107.355 114.606 107.614 114.716 107.965 114.804L108.849 115.021C109.382 115.15 109.779 115.348 110.04 115.614C110.301 115.878 110.431 116.218 110.431 116.634C110.431 116.975 110.333 117.28 110.136 117.549C109.943 117.818 109.671 118.03 109.322 118.185C108.974 118.34 108.568 118.418 108.104 118.418C107.498 118.418 106.994 118.286 106.597 118.023C106.198 117.759 105.946 117.374 105.841 116.867L106.709 116.649C106.791 116.97 106.948 117.211 107.178 117.371C107.41 117.531 107.714 117.611 108.089 117.611C108.516 117.611 108.854 117.521 109.105 117.34C109.358 117.156 109.485 116.937 109.485 116.68C109.485 116.474 109.413 116.301 109.268 116.161C109.124 116.019 108.901 115.913 108.601 115.843L107.609 115.61C107.063 115.481 106.662 115.281 106.407 115.01C106.153 114.735 106.026 114.393 106.026 113.981C106.026 113.646 106.121 113.348 106.309 113.09C106.5 112.831 106.76 112.628 107.089 112.481C107.419 112.334 107.794 112.26 108.214 112.26C108.802 112.26 109.266 112.389 109.601 112.647C109.94 112.907 110.181 113.248 110.323 113.671ZM113.158 118.294L111.344 112.338H112.305L113.592 116.898H113.654L114.926 112.338H115.904L117.16 116.882H117.222L118.51 112.338H119.471L117.656 118.294H116.756L115.454 113.719H115.361L114.058 118.294H113.158ZM122.976 118.418C122.402 118.418 121.907 118.291 121.491 118.038C121.077 117.781 120.758 117.425 120.533 116.968C120.311 116.508 120.199 115.972 120.199 115.362C120.199 114.752 120.311 114.214 120.533 113.749C120.758 113.281 121.071 112.917 121.471 112.656C121.874 112.392 122.344 112.26 122.882 112.26C123.193 112.26 123.499 112.312 123.801 112.415C124.104 112.518 124.379 112.687 124.628 112.92C124.876 113.15 125.073 113.455 125.221 113.834C125.368 114.214 125.442 114.682 125.442 115.238V115.626H120.85V114.835H124.511C124.511 114.499 124.444 114.199 124.31 113.935C124.178 113.671 123.989 113.464 123.743 113.311C123.5 113.159 123.213 113.082 122.882 113.082C122.518 113.082 122.203 113.173 121.937 113.354C121.673 113.532 121.47 113.765 121.328 114.052C121.185 114.338 121.114 114.646 121.114 114.974V115.502C121.114 115.952 121.192 116.333 121.347 116.646C121.505 116.956 121.723 117.193 122.002 117.356C122.282 117.516 122.606 117.596 122.976 117.596C123.216 117.596 123.433 117.562 123.628 117.495C123.823 117.425 123.993 117.322 124.135 117.185C124.277 117.045 124.387 116.872 124.465 116.665L125.349 116.913C125.255 117.213 125.099 117.477 124.88 117.704C124.659 117.929 124.388 118.105 124.065 118.232C123.742 118.356 123.379 118.418 122.976 118.418ZM126.834 118.294V112.338H127.718V113.237H127.78C127.889 112.942 128.085 112.704 128.369 112.52C128.654 112.336 128.974 112.244 129.331 112.244C129.399 112.244 129.482 112.246 129.583 112.249C129.684 112.251 129.761 112.255 129.812 112.26V113.191C129.781 113.183 129.71 113.172 129.599 113.156C129.49 113.138 129.375 113.129 129.254 113.129C128.964 113.129 128.705 113.19 128.478 113.311C128.253 113.43 128.075 113.596 127.943 113.808C127.813 114.017 127.749 114.255 127.749 114.525V118.294H126.834Z" fill="url(#paint6_linear_4_178)" fill-opacity="0.4"/>
</g>
<path d="M240.582 16.3792H32.2031C26.1725 16.3792 21.2837 21.2679 21.2837 27.2986V129.213C21.2837 135.244 26.1725 140.133 32.2031 140.133H240.582C246.613 140.133 251.502 135.244 251.502 129.213V27.2986C251.502 21.2679 246.613 16.3792 240.582 16.3792Z" stroke="#252527" stroke-linecap="round"/>
<path d="M22.1938 165.156H250.592" stroke="#252527"/>
<path d="M147.312 165.611C147.312 159.581 142.423 154.692 136.393 154.692C130.362 154.692 125.473 159.581 125.473 165.611C125.473 171.642 130.362 176.531 136.393 176.531C142.423 176.531 147.312 171.642 147.312 165.611Z" fill="#252527"/>
<path d="M147.312 165.611C147.312 159.581 142.423 154.692 136.393 154.692C130.362 154.692 125.473 159.581 125.473 165.611C125.473 171.642 130.362 176.531 136.393 176.531C142.423 176.531 147.312 171.642 147.312 165.611Z" fill="url(#paint7_linear_4_178)" fill-opacity="0.08"/>
<path d="M136.393 160.759V165.611M136.393 165.611V170.464M136.393 165.611H131.54M136.393 165.611H141.245" stroke="white" stroke-opacity="0.48" stroke-width="1.5" stroke-linecap="round"/>
<mask id="mask2_4_178" style="mask-type:luminance" maskUnits="userSpaceOnUse" x="21" y="191" width="231" height="37">
<path d="M244.222 191.09H28.5633C24.5429 191.09 21.2837 194.349 21.2837 198.369V220.208C21.2837 224.229 24.5429 227.488 28.5633 227.488H244.222C248.242 227.488 251.502 224.229 251.502 220.208V198.369C251.502 194.349 248.242 191.09 244.222 191.09Z" fill="white"/>
</mask>
<g mask="url(#mask2_4_178)">
<path d="M244.222 191.09H28.5633C24.5429 191.09 21.2837 194.349 21.2837 198.369V220.208C21.2837 224.229 24.5429 227.488 28.5633 227.488H244.222C248.242 227.488 251.502 224.229 251.502 220.208V198.369C251.502 194.349 248.242 191.09 244.222 191.09Z" fill="white" fill-opacity="0.03"/>
<g filter="url(#filter1_d_4_178)">
<path d="M56.7723 198.369H39.483C33.4523 198.369 28.5635 203.258 28.5635 209.289C28.5635 215.319 33.4523 220.208 39.483 220.208H56.7723C62.803 220.208 67.6918 215.319 67.6918 209.289C67.6918 203.258 62.803 198.369 56.7723 198.369Z" fill="#252527"/>
<path style="mix-blend-mode:overlay" d="M56.7723 198.369H39.483C33.4523 198.369 28.5635 203.258 28.5635 209.289C28.5635 215.319 33.4523 220.208 39.483 220.208H56.7723C62.803 220.208 67.6918 215.319 67.6918 209.289C67.6918 203.258 62.803 198.369 56.7723 198.369Z" fill="url(#paint8_radial_4_178)" fill-opacity="0.16"/>
<path style="mix-blend-mode:overlay" d="M56.7724 198.824H39.4831C33.7037 198.824 29.0186 203.51 29.0186 209.289C29.0186 215.068 33.7037 219.753 39.4831 219.753H56.7724C62.5518 219.753 67.2369 215.068 67.2369 209.289C67.2369 203.51 62.5518 198.824 56.7724 198.824Z" stroke="url(#paint9_radial_4_178)"/>
<path d="M36.3235 206.019V204.988H42.4703V206.019H39.9924V212.929H38.7977V206.019H36.3235ZM45.3294 213.049C44.7424 213.049 44.2365 212.923 43.8134 212.673C43.3911 212.419 43.0663 212.064 42.8361 211.607C42.6086 211.146 42.4948 210.607 42.4948 209.99C42.4948 209.379 42.6086 208.842 42.8361 208.376C43.0663 207.911 43.3866 207.548 43.7979 207.287C44.211 207.026 44.6942 206.895 45.2475 206.895C45.5841 206.895 45.9099 206.95 46.2248 207.062C46.5405 207.173 46.8235 207.347 47.0738 207.585C47.3249 207.823 47.5224 208.132 47.667 208.512C47.8117 208.889 47.8845 209.348 47.8845 209.889V210.3H43.15V209.431H46.748C46.748 209.126 46.6861 208.856 46.5624 208.621C46.4377 208.383 46.2639 208.195 46.0391 208.059C45.8162 207.921 45.555 207.853 45.2557 207.853C44.9299 207.853 44.6451 207.933 44.4021 208.093C44.1619 208.251 43.9762 208.458 43.8443 208.714C43.7151 208.967 43.6505 209.242 43.6505 209.54V210.218C43.6505 210.617 43.7196 210.955 43.8598 211.234C44.0017 211.514 44.1992 211.727 44.4531 211.874C44.706 212.019 45.0018 212.092 45.3412 212.092C45.5605 212.092 45.7607 212.06 45.9418 211.998C46.1228 211.933 46.2794 211.838 46.4113 211.711C46.5433 211.585 46.6434 211.428 46.7134 211.242L47.8108 211.44C47.7226 211.763 47.5651 212.046 47.3376 212.289C47.1129 212.529 46.8299 212.717 46.4887 212.851C46.1502 212.983 45.7634 213.049 45.3294 213.049ZM49.8382 206.973L51.1531 209.292L52.4789 206.973H53.7465L51.8893 209.95L53.7629 212.929H52.4944L51.1531 210.703L49.8146 212.929H48.5433L50.3969 209.95L48.5661 206.973H49.8382ZM57.6084 206.973V207.903H54.3553V206.973H57.6084ZM55.2279 205.545H56.3872V211.18C56.3872 211.405 56.4209 211.574 56.4882 211.688C56.5546 211.799 56.642 211.875 56.7476 211.917C56.8559 211.955 56.9742 211.975 57.1006 211.975C57.1935 211.975 57.2754 211.969 57.3445 211.955C57.4146 211.942 57.4691 211.932 57.5074 211.924L57.7167 212.882C57.6503 212.908 57.5538 212.934 57.4301 212.96C57.3063 212.988 57.1507 213.003 56.965 213.006C56.6602 213.012 56.3754 212.957 56.1115 212.843C55.8476 212.729 55.6347 212.554 55.4718 212.316C55.3089 212.078 55.2279 211.779 55.2279 211.42V205.545Z" fill="url(#paint10_linear_4_178)"/>
</g>
<g filter="url(#filter2_d_4_178)">
<path d="M103.18 198.369H85.8902C79.8595 198.369 74.9707 203.258 74.9707 209.289C74.9707 215.319 79.8595 220.208 85.8902 220.208H103.18C109.21 220.208 114.099 215.319 114.099 209.289C114.099 203.258 109.21 198.369 103.18 198.369Z" fill="#252527"/>
<path style="mix-blend-mode:overlay" d="M103.18 198.369H85.8902C79.8595 198.369 74.9707 203.258 74.9707 209.289C74.9707 215.319 79.8595 220.208 85.8902 220.208H103.18C109.21 220.208 114.099 215.319 114.099 209.289C114.099 203.258 109.21 198.369 103.18 198.369Z" fill="url(#paint11_radial_4_178)" fill-opacity="0.16"/>
<path style="mix-blend-mode:overlay" d="M103.18 198.824H85.8903C80.1109 198.824 75.4258 203.51 75.4258 209.289C75.4258 215.068 80.1109 219.753 85.8903 219.753H103.18C108.959 219.753 113.644 215.068 113.644 209.289C113.644 203.51 108.959 198.824 103.18 198.824Z" stroke="url(#paint12_radial_4_178)"/>
<path d="M83.123 212.929V204.988H84.3215V211.897H87.9195V212.929H83.123ZM89.177 212.929V204.988H90.3755V211.897H93.9743V212.929H89.177ZM95.2319 204.988H96.6861L99.2139 211.161H99.3067L101.836 204.988H103.29V212.929H102.149V207.182H102.076L99.7335 212.917H98.7871L96.4449 207.178H96.3721V212.929H95.2319V204.988Z" fill="url(#paint13_linear_4_178)"/>
</g>
<g filter="url(#filter3_d_4_178)">
<path d="M150.497 198.369H132.298C126.267 198.369 121.378 203.258 121.378 209.289C121.378 215.319 126.267 220.208 132.298 220.208H150.497C156.528 220.208 161.417 215.319 161.417 209.289C161.417 203.258 156.528 198.369 150.497 198.369Z" fill="#252527"/>
<path style="mix-blend-mode:overlay" d="M150.497 198.369H132.298C126.267 198.369 121.378 203.258 121.378 209.289C121.378 215.319 126.267 220.208 132.298 220.208H150.497C156.528 220.208 161.417 215.319 161.417 209.289C161.417 203.258 156.528 198.369 150.497 198.369Z" fill="url(#paint14_radial_4_178)" fill-opacity="0.16"/>
<path style="mix-blend-mode:overlay" d="M150.497 198.824H132.298C126.519 198.824 121.833 203.51 121.833 209.289C121.833 215.068 126.519 219.753 132.298 219.753H150.497C156.277 219.753 160.962 215.068 160.962 209.289C160.962 203.51 156.277 198.824 150.497 198.824Z" stroke="url(#paint15_radial_4_178)"/>
<path d="M131.086 212.929L128.883 204.988H130.143L131.69 211.137H131.764L133.373 204.988H134.622L136.231 211.142H136.304L137.848 204.988H139.113L136.906 212.929H135.7L134.029 206.98H133.967L132.295 212.929H131.086ZM141.983 213.049C141.397 213.049 140.891 212.923 140.467 212.673C140.045 212.419 139.72 212.064 139.489 211.607C139.262 211.146 139.148 210.607 139.148 209.99C139.148 209.379 139.262 208.842 139.489 208.376C139.72 207.911 140.041 207.548 140.451 207.287C140.865 207.026 141.348 206.895 141.902 206.895C142.237 206.895 142.563 206.95 142.879 207.062C143.194 207.173 143.478 207.347 143.728 207.585C143.979 207.823 144.177 208.132 144.321 208.512C144.466 208.889 144.539 209.348 144.539 209.889V210.3H139.804V209.431H143.402C143.402 209.126 143.34 208.856 143.217 208.621C143.092 208.383 142.917 208.195 142.692 208.059C142.47 207.921 142.209 207.853 141.91 207.853C141.584 207.853 141.299 207.933 141.056 208.093C140.816 208.251 140.629 208.458 140.498 208.714C140.368 208.967 140.304 209.242 140.304 209.54V210.218C140.304 210.617 140.374 210.955 140.513 211.234C140.656 211.514 140.853 211.727 141.106 211.874C141.36 212.019 141.656 212.092 141.994 212.092C142.215 212.092 142.415 212.06 142.596 211.998C142.777 211.933 142.933 211.838 143.065 211.711C143.196 211.585 143.297 211.428 143.368 211.242L144.465 211.44C144.377 211.763 144.219 212.046 143.992 212.289C143.767 212.529 143.484 212.717 143.143 212.851C142.803 212.983 142.418 213.049 141.983 213.049ZM145.809 212.929V204.988H146.968V207.939H147.038C147.105 207.814 147.202 207.671 147.329 207.508C147.455 207.345 147.632 207.202 147.856 207.081C148.081 206.958 148.379 206.895 148.748 206.895C149.229 206.895 149.658 207.017 150.036 207.26C150.412 207.503 150.709 207.853 150.923 208.311C151.14 208.768 151.249 209.319 151.249 209.962C151.249 210.606 151.142 211.158 150.928 211.618C150.713 212.075 150.418 212.428 150.043 212.677C149.668 212.922 149.24 213.045 148.76 213.045C148.398 213.045 148.102 212.984 147.872 212.863C147.644 212.741 147.466 212.599 147.337 212.436C147.208 212.274 147.107 212.129 147.038 212.002H146.941V212.929H145.809ZM146.945 209.95C146.945 210.369 147.006 210.737 147.128 211.052C147.249 211.367 147.424 211.614 147.654 211.792C147.885 211.969 148.167 212.056 148.5 212.056C148.846 212.056 149.136 211.964 149.369 211.781C149.601 211.595 149.777 211.343 149.896 211.025C150.018 210.707 150.078 210.349 150.078 209.95C150.078 209.557 150.019 209.205 149.899 208.892C149.784 208.579 149.607 208.333 149.372 208.151C149.139 207.97 148.849 207.88 148.5 207.88C148.164 207.88 147.879 207.967 147.647 208.14C147.417 208.313 147.242 208.555 147.123 208.865C147.005 209.175 146.945 209.537 146.945 209.95Z" fill="url(#paint16_linear_4_178)"/>
</g>
<g filter="url(#filter4_d_4_178)">
<path d="M203.274 198.369H179.615C173.585 198.369 168.696 203.258 168.696 209.289C168.696 215.319 173.585 220.208 179.615 220.208H203.274C209.305 220.208 214.194 215.319 214.194 209.289C214.194 203.258 209.305 198.369 203.274 198.369Z" fill="#252527"/>
<path style="mix-blend-mode:overlay" d="M203.274 198.369H179.615C173.585 198.369 168.696 203.258 168.696 209.289C168.696 215.319 173.585 220.208 179.615 220.208H203.274C209.305 220.208 214.194 215.319 214.194 209.289C214.194 203.258 209.305 198.369 203.274 198.369Z" fill="url(#paint17_radial_4_178)" fill-opacity="0.16"/>
<path style="mix-blend-mode:overlay" d="M203.274 198.824H179.615C173.836 198.824 169.151 203.51 169.151 209.289C169.151 215.068 173.836 219.753 179.615 219.753H203.274C209.054 219.753 213.739 215.068 213.739 209.289C213.739 203.51 209.054 198.824 203.274 198.824Z" stroke="url(#paint18_radial_4_178)"/>
<path d="M176.848 212.929V204.988H178.047V208.438H182.005V204.988H183.207V212.929H182.005V209.466H178.047V212.929H176.848ZM184.452 206.019V204.988H190.598V206.019H188.12V212.929H186.925V206.019H184.452ZM191.455 206.019V204.988H197.601V206.019H195.123V212.929H193.929V206.019H191.455ZM198.85 212.929V204.988H201.681C202.299 204.988 202.81 205.099 203.216 205.324C203.622 205.55 203.926 205.857 204.128 206.248C204.329 206.635 204.43 207.072 204.43 207.558C204.43 208.047 204.328 208.486 204.123 208.877C203.922 209.264 203.617 209.572 203.209 209.799C202.803 210.024 202.293 210.137 201.676 210.137H199.73V209.121H201.568C201.959 209.121 202.275 209.053 202.518 208.919C202.761 208.782 202.94 208.596 203.053 208.361C203.167 208.126 203.224 207.858 203.224 207.558C203.224 207.258 203.167 206.992 203.053 206.759C202.94 206.526 202.76 206.344 202.515 206.212C202.272 206.08 201.951 206.015 201.553 206.015H200.049V212.929H198.85Z" fill="url(#paint19_linear_4_178)"/>
</g>
<g filter="url(#filter5_d_4_178)">
<path d="M252.412 198.369H232.393C226.362 198.369 221.473 203.258 221.473 209.289C221.473 215.319 226.362 220.208 232.393 220.208H252.412C258.443 220.208 263.331 215.319 263.331 209.289C263.331 203.258 258.443 198.369 252.412 198.369Z" fill="#252527"/>
<path style="mix-blend-mode:overlay" d="M252.412 198.369H232.393C226.362 198.369 221.473 203.258 221.473 209.289C221.473 215.319 226.362 220.208 232.393 220.208H252.412C258.443 220.208 263.331 215.319 263.331 209.289C263.331 203.258 258.443 198.369 252.412 198.369Z" fill="url(#paint20_radial_4_178)" fill-opacity="0.16"/>
<path style="mix-blend-mode:overlay" d="M252.412 198.824H232.393C226.613 198.824 221.928 203.51 221.928 209.289C221.928 215.068 226.613 219.753 232.393 219.753H252.412C258.191 219.753 262.876 215.068 262.876 209.289C262.876 203.51 258.191 198.824 252.412 198.824Z" stroke="url(#paint21_radial_4_178)"/>
<path d="M233.957 207.073C233.915 206.706 233.745 206.421 233.445 206.22C233.145 206.016 232.768 205.914 232.313 205.914C231.987 205.914 231.705 205.966 231.467 206.069C231.23 206.169 231.044 206.31 230.913 206.488C230.784 206.663 230.719 206.864 230.719 207.088C230.719 207.278 230.763 207.441 230.85 207.577C230.941 207.714 231.059 207.829 231.203 207.923C231.351 208.013 231.508 208.089 231.677 208.151C231.845 208.21 232.006 208.26 232.161 208.299L232.937 208.501C233.19 208.563 233.45 208.646 233.717 208.753C233.982 208.858 234.229 208.998 234.456 209.171C234.684 209.344 234.868 209.559 235.008 209.815C235.15 210.07 235.221 210.377 235.221 210.734C235.221 211.183 235.104 211.583 234.871 211.932C234.642 212.281 234.307 212.556 233.868 212.757C233.431 212.959 232.902 213.06 232.282 213.06C231.687 213.06 231.172 212.966 230.738 212.777C230.304 212.588 229.964 212.321 229.718 211.975C229.473 211.625 229.337 211.212 229.312 210.734H230.514C230.536 211.02 230.63 211.26 230.792 211.451C230.958 211.64 231.169 211.781 231.424 211.874C231.683 211.964 231.966 212.009 232.273 212.009C232.612 212.009 232.913 211.957 233.177 211.85C233.444 211.742 233.653 211.592 233.806 211.401C233.958 211.207 234.034 210.98 234.034 210.722C234.034 210.487 233.967 210.294 233.832 210.144C233.701 209.995 233.521 209.87 233.293 209.772C233.069 209.674 232.814 209.587 232.53 209.513L231.591 209.256C230.955 209.083 230.451 208.828 230.079 208.493C229.709 208.157 229.524 207.712 229.524 207.159C229.524 206.701 229.648 206.301 229.897 205.96C230.145 205.619 230.481 205.354 230.905 205.166C231.329 204.975 231.808 204.878 232.34 204.878C232.878 204.878 233.352 204.973 233.763 205.161C234.176 205.35 234.502 205.61 234.74 205.941C234.978 206.269 235.102 206.647 235.113 207.073H233.957ZM238.184 213.06C237.806 213.06 237.465 212.99 237.16 212.851C236.855 212.709 236.613 212.504 236.435 212.234C236.259 211.966 236.171 211.636 236.171 211.246C236.171 210.909 236.235 210.633 236.365 210.416C236.494 210.199 236.669 210.027 236.889 209.9C237.108 209.774 237.354 209.678 237.625 209.614C237.897 209.549 238.174 209.5 238.455 209.466C238.811 209.424 239.102 209.391 239.324 209.365C239.546 209.337 239.708 209.291 239.809 209.23C239.909 209.167 239.96 209.067 239.96 208.927V208.899C239.96 208.561 239.864 208.299 239.672 208.112C239.484 207.927 239.202 207.834 238.827 207.834C238.437 207.834 238.129 207.92 237.904 208.093C237.682 208.264 237.528 208.453 237.443 208.663L236.354 208.415C236.483 208.053 236.671 207.761 236.92 207.539C237.17 207.314 237.458 207.151 237.784 207.05C238.11 206.946 238.452 206.895 238.812 206.895C239.05 206.895 239.302 206.924 239.568 206.98C239.837 207.035 240.087 207.136 240.32 207.282C240.556 207.43 240.748 207.641 240.898 207.915C241.048 208.186 241.123 208.539 241.123 208.973V212.929H239.991V212.114H239.944C239.869 212.264 239.757 212.412 239.607 212.556C239.457 212.701 239.265 212.821 239.029 212.917C238.793 213.012 238.512 213.06 238.184 213.06ZM238.436 212.13C238.756 212.13 239.03 212.067 239.257 211.939C239.488 211.813 239.662 211.647 239.782 211.443C239.903 211.237 239.964 211.016 239.964 210.78V210.012C239.923 210.054 239.842 210.093 239.723 210.129C239.607 210.162 239.474 210.192 239.324 210.218C239.174 210.241 239.028 210.263 238.885 210.284C238.743 210.302 238.624 210.318 238.528 210.331C238.304 210.359 238.098 210.407 237.912 210.474C237.729 210.541 237.581 210.638 237.47 210.765C237.362 210.889 237.307 211.054 237.307 211.261C237.307 211.548 237.413 211.766 237.625 211.913C237.837 212.058 238.107 212.13 238.436 212.13ZM247.44 206.973L245.28 212.929H244.039L241.875 206.973H243.12L244.629 211.555H244.691L246.195 206.973H247.44ZM250.785 213.049C250.198 213.049 249.693 212.923 249.269 212.673C248.847 212.419 248.522 212.064 248.291 211.606C248.064 211.146 247.95 210.607 247.95 209.989C247.95 209.379 248.064 208.842 248.291 208.376C248.522 207.911 248.842 207.548 249.253 207.287C249.666 207.026 250.151 206.895 250.704 206.895C251.04 206.895 251.365 206.95 251.68 207.062C251.996 207.173 252.279 207.347 252.53 207.585C252.78 207.823 252.979 208.132 253.123 208.512C253.268 208.889 253.34 209.348 253.34 209.888V210.3H248.605V209.431H252.204C252.204 209.126 252.142 208.856 252.018 208.621C251.894 208.382 251.719 208.195 251.495 208.058C251.273 207.921 251.011 207.853 250.711 207.853C250.385 207.853 250.101 207.933 249.858 208.093C249.617 208.25 249.432 208.458 249.3 208.714C249.171 208.967 249.106 209.242 249.106 209.54V210.218C249.106 210.616 249.176 210.955 249.315 211.234C249.457 211.514 249.656 211.726 249.909 211.874C250.161 212.019 250.458 212.091 250.797 212.091C251.016 212.091 251.217 212.06 251.397 211.998C251.578 211.933 251.735 211.837 251.867 211.711C251.999 211.585 252.1 211.428 252.169 211.241L253.266 211.44C253.179 211.763 253.021 212.046 252.793 212.289C252.568 212.529 252.285 212.716 251.944 212.851C251.606 212.983 251.219 213.049 250.785 213.049Z" fill="url(#paint22_linear_4_178)"/>
</g>
</g>
</g>
<path d="M249.682 5.91479H24.9236C17.134 5.91479 10.8193 12.2295 10.8193 20.019V354.881C10.8193 362.671 17.134 368.986 24.9236 368.986H249.682C257.471 368.986 263.786 362.671 263.786 354.881V20.019C263.786 12.2295 257.471 5.91479 249.682 5.91479Z" stroke="white" stroke-opacity="0.02"/>
</g>
<defs>
<filter id="filter0_d_4_178" x="0.319336" y="-0.585205" width="273.967" height="384.071" filterUnits="userSpaceOnUse" color-interpolation-filters="sRGB">
<feFlood flood-opacity="0" result="BackgroundImageFix"/>
<feColorMatrix in="SourceAlpha" type="matrix" values="0 0 0 0 0 0 0 0 0 0 0 0 0 0 0 0 0 0 127 0" result="hardAlpha"/>
<feOffset dy="4"/>
<feGaussianBlur stdDeviation="5"/>
<feComposite in2="hardAlpha" operator="out"/>
<feColorMatrix type="matrix" values="0 0 0 0 0 0 0 0 0 0 0 0 0 0 0 0 0 0 0.3 0"/>
<feBlend mode="normal" in2="BackgroundImageFix" result="effect1_dropShadow_4_178"/>
<feBlend mode="normal" in="SourceGraphic" in2="effect1_dropShadow_4_178" result="shape"/>
</filter>
<filter id="filter1_d_4_178" x="25.5186" y="196.324" width="45.2185" height="27.929" filterUnits="userSpaceOnUse" color-interpolation-filters="sRGB">
<feFlood flood-opacity="0" result="BackgroundImageFix"/>
<feColorMatrix in="SourceAlpha" type="matrix" values="0 0 0 0 0 0 0 0 0 0 0 0 0 0 0 0 0 0 127 0" result="hardAlpha"/>
<feOffset dy="1"/>
<feGaussianBlur stdDeviation="1.5"/>
<feComposite in2="hardAlpha" operator="out"/>
<feColorMatrix type="matrix" values="0 0 0 0 0 0 0 0 0 0 0 0 0 0 0 0 0 0 0.16 0"/>
<feBlend mode="normal" in2="BackgroundImageFix" result="effect1_dropShadow_4_178"/>
<feBlend mode="normal" in="SourceGraphic" in2="effect1_dropShadow_4_178" result="shape"/>
</filter>
<filter id="filter2_d_4_178" x="71.9258" y="196.324" width="45.2185" height="27.929" filterUnits="userSpaceOnUse" color-interpolation-filters="sRGB">
<feFlood flood-opacity="0" result="BackgroundImageFix"/>
<feColorMatrix in="SourceAlpha" type="matrix" values="0 0 0 0 0 0 0 0 0 0 0 0 0 0 0 0 0 0 127 0" result="hardAlpha"/>
<feOffset dy="1"/>
<feGaussianBlur stdDeviation="1.5"/>
<feComposite in2="hardAlpha" operator="out"/>
<feColorMatrix type="matrix" values="0 0 0 0 0 0 0 0 0 0 0 0 0 0 0 0 0 0 0.16 0"/>
<feBlend mode="normal" in2="BackgroundImageFix" result="effect1_dropShadow_4_178"/>
<feBlend mode="normal" in="SourceGraphic" in2="effect1_dropShadow_4_178" result="shape"/>
</filter>
<filter id="filter3_d_4_178" x="118.333" y="196.324" width="46.1284" height="27.929" filterUnits="userSpaceOnUse" color-interpolation-filters="sRGB">
<feFlood flood-opacity="0" result="BackgroundImageFix"/>
<feColorMatrix in="SourceAlpha" type="matrix" values="0 0 0 0 0 0 0 0 0 0 0 0 0 0 0 0 0 0 127 0" result="hardAlpha"/>
<feOffset dy="1"/>
<feGaussianBlur stdDeviation="1.5"/>
<feComposite in2="hardAlpha" operator="out"/>
<feColorMatrix type="matrix" values="0 0 0 0 0 0 0 0 0 0 0 0 0 0 0 0 0 0 0.16 0"/>
<feBlend mode="normal" in2="BackgroundImageFix" result="effect1_dropShadow_4_178"/>
<feBlend mode="normal" in="SourceGraphic" in2="effect1_dropShadow_4_178" result="shape"/>
</filter>
<filter id="filter4_d_4_178" x="165.651" y="196.324" width="51.5881" height="27.929" filterUnits="userSpaceOnUse" color-interpolation-filters="sRGB">
<feFlood flood-opacity="0" result="BackgroundImageFix"/>
<feColorMatrix in="SourceAlpha" type="matrix" values="0 0 0 0 0 0 0 0 0 0 0 0 0 0 0 0 0 0 127 0" result="hardAlpha"/>
<feOffset dy="1"/>
<feGaussianBlur stdDeviation="1.5"/>
<feComposite in2="hardAlpha" operator="out"/>
<feColorMatrix type="matrix" values="0 0 0 0 0 0 0 0 0 0 0 0 0 0 0 0 0 0 0.16 0"/>
<feBlend mode="normal" in2="BackgroundImageFix" result="effect1_dropShadow_4_178"/>
<feBlend mode="normal" in="SourceGraphic" in2="effect1_dropShadow_4_178" result="shape"/>
</filter>
<filter id="filter5_d_4_178" x="218.428" y="196.324" width="47.9482" height="27.929" filterUnits="userSpaceOnUse" color-interpolation-filters="sRGB">
<feFlood flood-opacity="0" result="BackgroundImageFix"/>
<feColorMatrix in="SourceAlpha" type="matrix" values="0 0 0 0 0 0 0 0 0 0 0 0 0 0 0 0 0 0 127 0" result="hardAlpha"/>
<feOffset dy="1"/>
<feGaussianBlur stdDeviation="1.5"/>
<feComposite in2="hardAlpha" operator="out"/>
<feColorMatrix type="matrix" values="0 0 0 0 0 0 0 0 0 0 0 0 0 0 0 0 0 0 0.16 0"/>
<feBlend mode="normal" in2="BackgroundImageFix" result="effect1_dropShadow_4_178"/>
<feBlend mode="normal" in="SourceGraphic" in2="effect1_dropShadow_4_178" result="shape"/>
</filter>
<radialGradient id="paint0_radial_4_178" cx="0" cy="0" r="1" gradientUnits="userSpaceOnUse" gradientTransform="translate(10.3643 5.45972) rotate(55.1042) scale(443.774 471.766)">
<stop stop-color="#1B1B1B" stop-opacity="0"/>
<stop offset="0.494792" stop-color="#1B1B1B"/>
</radialGradient>
<radialGradient id="paint1_radial_4_178" cx="0" cy="0" r="1" gradientUnits="userSpaceOnUse" gradientTransform="translate(157.322 182.9) rotate(-9.46232) scale(154.98 576.038)">
<stop stop-color="#828282"/>
<stop offset="0.675" stop-color="#1B1B1B" stop-opacity="0"/>
</radialGradient>
<radialGradient id="paint2_radial_4_178" cx="0" cy="0" r="1" gradientUnits="userSpaceOnUse" gradientTransform="translate(22.2792 32.1148) rotate(64.4473) scale(347.408 242.576)">
<stop stop-color="#171717"/>
<stop offset="1" stop-color="#1B1B1B" stop-opacity="0"/>
</radialGradient>
<linearGradient id="paint3_linear_4_178" x1="65.8714" y1="27.2986" x2="65.8714" y2="41.8578" gradientUnits="userSpaceOnUse">
<stop stop-color="white"/>
<stop offset="1" stop-color="#DEDEDE"/>
</linearGradient>
<linearGradient id="paint4_linear_4_178" x1="145.493" y1="50.9574" x2="145.493" y2="69.1564" gradientUnits="userSpaceOnUse">
<stop stop-color="white"/>
<stop offset="1" stop-color="#DEDEDE"/>
</linearGradient>
<linearGradient id="paint5_linear_4_178" x1="64.9613" y1="81.8958" x2="64.9613" y2="96.455" gradientUnits="userSpaceOnUse">
<stop stop-color="white"/>
<stop offset="1" stop-color="#DEDEDE"/>
</linearGradient>
<linearGradient id="paint6_linear_4_178" x1="145.493" y1="105.554" x2="145.493" y2="123.753" gradientUnits="userSpaceOnUse">
<stop stop-color="white"/>
<stop offset="1" stop-color="#DEDEDE"/>
</linearGradient>
<linearGradient id="paint7_linear_4_178" x1="136.393" y1="154.692" x2="136.393" y2="176.531" gradientUnits="userSpaceOnUse">
<stop stop-color="white"/>
<stop offset="0.317708" stop-color="white" stop-opacity="0"/>
</linearGradient>
<radialGradient id="paint8_radial_4_178" cx="0" cy="0" r="1" gradientUnits="userSpaceOnUse" gradientTransform="translate(39.5686 204.921) rotate(60.7554) scale(17.5203 97.089)">
<stop stop-color="white"/>
<stop offset="1" stop-color="white" stop-opacity="0"/>
</radialGradient>
<radialGradient id="paint9_radial_4_178" cx="0" cy="0" r="1" gradientUnits="userSpaceOnUse" gradientTransform="translate(46.4662 198.369) rotate(85.6492) scale(21.902 42.8256)">
<stop stop-color="white" stop-opacity="0.48"/>
<stop offset="1" stop-color="white" stop-opacity="0.04"/>
</radialGradient>
<linearGradient id="paint10_linear_4_178" x1="47.2176" y1="202.009" x2="47.2176" y2="216.569" gradientUnits="userSpaceOnUse">
<stop stop-color="white"/>
<stop offset="1" stop-color="#DEDEDE"/>
</linearGradient>
<radialGradient id="paint11_radial_4_178" cx="0" cy="0" r="1" gradientUnits="userSpaceOnUse" gradientTransform="translate(85.9758 204.921) rotate(60.7554) scale(17.5203 97.089)">
<stop stop-color="white"/>
<stop offset="1" stop-color="white" stop-opacity="0"/>
</radialGradient>
<radialGradient id="paint12_radial_4_178" cx="0" cy="0" r="1" gradientUnits="userSpaceOnUse" gradientTransform="translate(92.8734 198.369) rotate(85.6492) scale(21.902 42.8256)">
<stop stop-color="white" stop-opacity="0.48"/>
<stop offset="1" stop-color="white" stop-opacity="0.04"/>
</radialGradient>
<linearGradient id="paint13_linear_4_178" x1="93.6249" y1="202.009" x2="93.6249" y2="216.569" gradientUnits="userSpaceOnUse">
<stop stop-color="white"/>
<stop offset="1" stop-color="#DEDEDE"/>
</linearGradient>
<radialGradient id="paint14_radial_4_178" cx="0" cy="0" r="1" gradientUnits="userSpaceOnUse" gradientTransform="translate(132.639 204.921) rotate(60.1906) scale(17.6183 98.7934)">
<stop stop-color="white"/>
<stop offset="1" stop-color="white" stop-opacity="0"/>
</radialGradient>
<radialGradient id="paint15_radial_4_178" cx="0" cy="0" r="1" gradientUnits="userSpaceOnUse" gradientTransform="translate(139.698 198.369) rotate(85.5484) scale(21.9049 43.8157)">
<stop stop-color="white" stop-opacity="0.48"/>
<stop offset="1" stop-color="white" stop-opacity="0.04"/>
</radialGradient>
<linearGradient id="paint16_linear_4_178" x1="140.488" y1="202.009" x2="140.488" y2="216.569" gradientUnits="userSpaceOnUse">
<stop stop-color="white"/>
<stop offset="1" stop-color="#DEDEDE"/>
</linearGradient>
<radialGradient id="paint17_radial_4_178" cx="0" cy="0" r="1" gradientUnits="userSpaceOnUse" gradientTransform="translate(181.492 204.921) rotate(56.9339) scale(18.2416 108.43)">
<stop stop-color="white"/>
<stop offset="1" stop-color="white" stop-opacity="0"/>
</radialGradient>
<radialGradient id="paint18_radial_4_178" cx="0" cy="0" r="1" gradientUnits="userSpaceOnUse" gradientTransform="translate(189.513 198.369) rotate(84.9442) scale(21.9241 49.7469)">
<stop stop-color="white" stop-opacity="0.48"/>
<stop offset="1" stop-color="white" stop-opacity="0.04"/>
</radialGradient>
<linearGradient id="paint19_linear_4_178" x1="190.535" y1="202.009" x2="190.535" y2="216.569" gradientUnits="userSpaceOnUse">
<stop stop-color="white"/>
<stop offset="1" stop-color="#DEDEDE"/>
</linearGradient>
<radialGradient id="paint20_radial_4_178" cx="0" cy="0" r="1" gradientUnits="userSpaceOnUse" gradientTransform="translate(233.245 204.921) rotate(59.0798) scale(17.8196 102.117)">
<stop stop-color="white"/>
<stop offset="1" stop-color="white" stop-opacity="0"/>
</radialGradient>
<radialGradient id="paint21_radial_4_178" cx="0" cy="0" r="1" gradientUnits="userSpaceOnUse" gradientTransform="translate(240.625 198.369) rotate(85.3468) scale(21.9111 45.7945)">
<stop stop-color="white" stop-opacity="0.48"/>
<stop offset="1" stop-color="white" stop-opacity="0.04"/>
</radialGradient>
<linearGradient id="paint22_linear_4_178" x1="241.492" y1="202.009" x2="241.492" y2="216.568" gradientUnits="userSpaceOnUse">
<stop stop-color="white"/>
<stop offset="1" stop-color="#DEDEDE"/>
</linearGradient>
</defs>
</svg>
