<svg width="129" height="30" viewBox="0 0 129 30" fill="none" xmlns="http://www.w3.org/2000/svg">
<path d="M0.160217 14.7969C0.160217 6.78875 6.65209 0.296875 14.6602 0.296875H113.81C121.818 0.296875 128.31 6.78875 128.31 14.7969C128.31 22.805 121.818 29.2969 113.81 29.2969H14.6602C6.65209 29.2969 0.160217 22.805 0.160217 14.7969Z" fill="white" fill-opacity="0.02"/>
<path d="M0.160217 14.7969C0.160217 6.78875 6.65209 0.296875 14.6602 0.296875H113.81C121.818 0.296875 128.31 6.78875 128.31 14.7969C128.31 22.805 121.818 29.2969 113.81 29.2969H14.6602C6.65209 29.2969 0.160217 22.805 0.160217 14.7969Z" fill="url(#paint0_linear_1_1613)"/>
<path d="M14.6602 0.796875H113.811C121.542 0.797094 127.811 7.06502 127.811 14.7969C127.811 22.5287 121.542 28.7967 113.811 28.7969H14.6602C6.92823 28.7969 0.660217 22.5289 0.660217 14.7969C0.660217 7.06489 6.92823 0.796875 14.6602 0.796875Z" stroke="white" stroke-opacity="0.06"/>
<defs>
<linearGradient id="paint0_linear_1_1613" x1="0.160217" y1="0.296875" x2="129.701" y2="20.2867" gradientUnits="userSpaceOnUse">
<stop offset="0.1583" stop-color="#5E6AD2" stop-opacity="0.2"/>
<stop offset="0.6301" stop-color="#171717" stop-opacity="0.2"/>
</linearGradient>
</defs>
</svg>
