<svg width="129" height="30" viewBox="0 0 129 30" fill="none" xmlns="http://www.w3.org/2000/svg">
<path d="M0.660156 14.5156C0.660156 6.5075 7.15203 0.015625 15.1602 0.015625H114.31C122.318 0.015625 128.81 6.5075 128.81 14.5156V14.5156C128.81 22.5238 122.318 29.0156 114.31 29.0156H15.1602C7.15203 29.0156 0.660156 22.5238 0.660156 14.5156V14.5156Z" fill="white" fill-opacity="0.02"/>
<path d="M0.660156 14.5156C0.660156 6.5075 7.15203 0.015625 15.1602 0.015625H114.31C122.318 0.015625 128.81 6.5075 128.81 14.5156V14.5156C128.81 22.5238 122.318 29.0156 114.31 29.0156H15.1602C7.15203 29.0156 0.660156 22.5238 0.660156 14.5156V14.5156Z" fill="url(#paint0_linear_7_1645)"/>
<defs>
<linearGradient id="paint0_linear_7_1645" x1="0.660156" y1="0.015625" x2="130.201" y2="20.0055" gradientUnits="userSpaceOnUse">
<stop offset="0.1583" stop-color="#5E6AD2" stop-opacity="0.2"/>
<stop offset="0.6301" stop-color="#171717" stop-opacity="0.2"/>
</linearGradient>
</defs>
</svg>
