<svg width="92" height="30" viewBox="0 0 92 30" fill="none" xmlns="http://www.w3.org/2000/svg">
<path d="M0 14.5156C0 6.5075 6.49187 0.015625 14.5 0.015625H77.3C85.3081 0.015625 91.8 6.5075 91.8 14.5156V14.5156C91.8 22.5238 85.3081 29.0156 77.3 29.0156H14.5C6.49187 29.0156 0 22.5238 0 14.5156V14.5156Z" fill="white" fill-opacity="0.02"/>
<path d="M0 14.5156C0 6.5075 6.49187 0.015625 14.5 0.015625H77.3C85.3081 0.015625 91.8 6.5075 91.8 14.5156V14.5156C91.8 22.5238 85.3081 29.0156 77.3 29.0156H14.5C6.49187 29.0156 0 22.5238 0 14.5156V14.5156Z" fill="url(#paint0_linear_7_1555)"/>
<defs>
<linearGradient id="paint0_linear_7_1555" x1="0" y1="0.015625" x2="93.8588" y2="10.391" gradientUnits="userSpaceOnUse">
<stop offset="0.1583" stop-color="#108D51" stop-opacity="0.2"/>
<stop offset="0.6301" stop-color="#171717" stop-opacity="0.2"/>
</linearGradient>
</defs>
</svg>
