<svg width="93" height="30" viewBox="0 0 93 30" fill="none" xmlns="http://www.w3.org/2000/svg">
<path d="M0.5 14.7969C0.5 6.78875 6.99187 0.296875 15 0.296875H77.8C85.8081 0.296875 92.3 6.78875 92.3 14.7969C92.3 22.805 85.8081 29.2969 77.8 29.2969H15C6.99187 29.2969 0.5 22.805 0.5 14.7969Z" fill="white" fill-opacity="0.02"/>
<path d="M0.5 14.7969C0.5 6.78875 6.99187 0.296875 15 0.296875H77.8C85.8081 0.296875 92.3 6.78875 92.3 14.7969C92.3 22.805 85.8081 29.2969 77.8 29.2969H15C6.99187 29.2969 0.5 22.805 0.5 14.7969Z" fill="url(#paint0_linear_1_1523)"/>
<path d="M15 0.796875H77.7998C85.5318 0.796875 91.7998 7.06489 91.7998 14.7969C91.7998 22.5289 85.5318 28.7969 77.7998 28.7969H15C7.26801 28.7969 1 22.5289 1 14.7969C1 7.06489 7.26801 0.796876 15 0.796875Z" stroke="white" stroke-opacity="0.06"/>
<defs>
<linearGradient id="paint0_linear_1_1523" x1="0.5" y1="0.296875" x2="94.3588" y2="10.6722" gradientUnits="userSpaceOnUse">
<stop offset="0.1583" stop-color="#108D51" stop-opacity="0.2"/>
<stop offset="0.6301" stop-color="#171717" stop-opacity="0.2"/>
</linearGradient>
</defs>
</svg>
