<svg width="155" height="52" viewBox="0 0 155 52" fill="none" xmlns="http://www.w3.org/2000/svg">
<g filter="url(#filter0_di_1_1619)">
<path d="M10.4395 21.7469C10.4395 13.2141 17.3567 6.29688 25.8895 6.29688H129.089C137.622 6.29688 144.539 13.2141 144.539 21.7469C144.539 30.2797 137.622 37.1969 129.089 37.1969H25.8895C17.3567 37.1969 10.4395 30.2797 10.4395 21.7469Z" fill="url(#paint0_radial_1_1619)" shape-rendering="crispEdges"/>
<path d="M10.4395 21.7469C10.4395 13.2141 17.3567 6.29688 25.8895 6.29688H129.089C137.622 6.29688 144.539 13.2141 144.539 21.7469C144.539 30.2797 137.622 37.1969 129.089 37.1969H25.8895C17.3567 37.1969 10.4395 30.2797 10.4395 21.7469Z" fill="url(#paint1_linear_1_1619)" shape-rendering="crispEdges"/>
<path d="M10.4395 21.7469C10.4395 13.2141 17.3567 6.29688 25.8895 6.29688H129.089C137.622 6.29688 144.539 13.2141 144.539 21.7469C144.539 30.2797 137.622 37.1969 129.089 37.1969H25.8895C17.3567 37.1969 10.4395 30.2797 10.4395 21.7469Z" fill="url(#paint2_linear_1_1619)" shape-rendering="crispEdges"/>
<path d="M25.8896 6.79688H129.09C137.346 6.79709 144.039 13.4905 144.039 21.7471C144.039 30.0035 137.346 36.6971 129.09 36.6973H25.8896C17.6331 36.6973 10.9396 30.0036 10.9395 21.7471C10.9395 13.4904 17.633 6.79688 25.8896 6.79688Z" stroke="white" stroke-opacity="0.04" shape-rendering="crispEdges"/>
</g>
<defs>
<filter id="filter0_di_1_1619" x="0.439453" y="0.296875" width="154.1" height="50.8999" filterUnits="userSpaceOnUse" color-interpolation-filters="sRGB">
<feFlood flood-opacity="0" result="BackgroundImageFix"/>
<feColorMatrix in="SourceAlpha" type="matrix" values="0 0 0 0 0 0 0 0 0 0 0 0 0 0 0 0 0 0 127 0" result="hardAlpha"/>
<feOffset dy="4"/>
<feGaussianBlur stdDeviation="5"/>
<feComposite in2="hardAlpha" operator="out"/>
<feColorMatrix type="matrix" values="0 0 0 0 0 0 0 0 0 0 0 0 0 0 0 0 0 0 0.3 0"/>
<feBlend mode="normal" in2="BackgroundImageFix" result="effect1_dropShadow_1_1619"/>
<feBlend mode="normal" in="SourceGraphic" in2="effect1_dropShadow_1_1619" result="shape"/>
<feColorMatrix in="SourceAlpha" type="matrix" values="0 0 0 0 0 0 0 0 0 0 0 0 0 0 0 0 0 0 127 0" result="hardAlpha"/>
<feOffset dy="1"/>
<feComposite in2="hardAlpha" operator="arithmetic" k2="-1" k3="1"/>
<feColorMatrix type="matrix" values="0 0 0 0 1 0 0 0 0 1 0 0 0 0 1 0 0 0 0.06 0"/>
<feBlend mode="normal" in2="shape" result="effect2_innerShadow_1_1619"/>
</filter>
<radialGradient id="paint0_radial_1_1619" cx="0" cy="0" r="1" gradientUnits="userSpaceOnUse" gradientTransform="translate(77.4895 21.7469) rotate(12.9759) scale(68.807 30.111)">
<stop stop-color="#1B1B1B" stop-opacity="0"/>
<stop offset="0.4948" stop-color="#1B1B1B"/>
</radialGradient>
<linearGradient id="paint1_linear_1_1619" x1="10.4395" y1="37.1969" x2="19.5726" y2="-15.4021" gradientUnits="userSpaceOnUse">
<stop offset="0.1156" stop-color="#C38CF5" stop-opacity="0.28"/>
<stop offset="0.863" stop-opacity="0"/>
</linearGradient>
<linearGradient id="paint2_linear_1_1619" x1="144.539" y1="6.29688" x2="132.859" y2="62.5959" gradientUnits="userSpaceOnUse">
<stop offset="0.087" stop-color="white" stop-opacity="0.2"/>
<stop offset="0.379" stop-opacity="0"/>
</linearGradient>
</defs>
</svg>
