<svg width="1455" height="1356" viewBox="0 0 1455 1356" fill="none" xmlns="http://www.w3.org/2000/svg">
<g opacity="0.4" clip-path="url(#clip0_7_1279)">
<g opacity="0.4">
<path opacity="0.4" d="M568.676 308.75C568.402 308.75 568.181 308.529 568.181 308.256C568.181 307.982 568.402 307.761 568.676 307.761C568.949 307.761 569.17 307.982 569.17 308.256C569.17 308.529 568.949 308.75 568.676 308.75Z" fill="white"/>
<path d="M288.624 228.594C288.351 228.594 288.129 228.373 288.129 228.099C288.129 227.826 288.351 227.604 288.624 227.604C288.897 227.604 289.119 227.826 289.119 228.099C289.119 228.373 288.897 228.594 288.624 228.594Z" fill="white"/>
<path d="M1055.55 540.313C1055.28 540.313 1055.06 540.092 1055.06 539.819C1055.06 539.545 1055.28 539.324 1055.55 539.324C1055.82 539.324 1056.05 539.545 1056.05 539.819C1056.05 540.092 1055.82 540.313 1055.55 540.313Z" fill="white"/>
<path d="M479.613 318.646C479.34 318.646 479.118 318.425 479.118 318.152C479.118 317.878 479.34 317.657 479.613 317.657C479.886 317.657 480.108 317.878 480.108 318.152C480.108 318.425 479.886 318.646 479.613 318.646Z" fill="white"/>
<path d="M199.561 238.49C199.288 238.49 199.067 238.269 199.067 237.995C199.067 237.722 199.288 237.5 199.561 237.5C199.835 237.5 200.056 237.722 200.056 237.995C200.056 238.269 199.835 238.49 199.561 238.49Z" fill="white"/>
<path d="M966.488 550.209C966.215 550.209 965.993 549.988 965.993 549.715C965.993 549.441 966.215 549.22 966.488 549.22C966.761 549.22 966.983 549.441 966.983 549.715C966.983 549.988 966.761 550.209 966.488 550.209Z" fill="white"/>
<path d="M390.551 269.167C390.277 269.167 390.056 268.946 390.056 268.673C390.056 268.399 390.277 268.178 390.551 268.178C390.824 268.178 391.045 268.399 391.045 268.673C391.045 268.946 390.824 269.167 390.551 269.167Z" fill="white"/>
<path opacity="0.5" d="M110.499 189.011C110.226 189.011 110.005 188.789 110.005 188.516C110.005 188.243 110.226 188.021 110.499 188.021C110.773 188.021 110.994 188.243 110.994 188.516C110.994 188.789 110.773 189.011 110.499 189.011Z" fill="white"/>
<path d="M877.426 500.73C877.152 500.73 876.931 500.508 876.931 500.235C876.931 499.962 877.152 499.74 877.426 499.74C877.699 499.74 877.92 499.962 877.92 500.235C877.92 500.508 877.699 500.73 877.426 500.73Z" fill="white"/>
<path d="M301.488 180.104C301.215 180.104 300.993 179.883 300.993 179.61C300.993 179.336 301.215 179.115 301.488 179.115C301.761 179.115 301.983 179.336 301.983 179.61C301.983 179.883 301.761 180.104 301.488 180.104Z" fill="white"/>
<path opacity="0.5" d="M21.4368 99.9481C21.1636 99.9481 20.9421 99.7266 20.9421 99.4533C20.9421 99.18 21.1636 98.9585 21.4368 98.9585C21.7101 98.9585 21.9316 99.18 21.9316 99.4533C21.9316 99.7266 21.7101 99.9481 21.4368 99.9481Z" fill="white"/>
<path opacity="0.4" d="M788.363 411.667C788.09 411.667 787.868 411.446 787.868 411.173C787.868 410.899 788.09 410.678 788.363 410.678C788.636 410.678 788.858 410.899 788.858 411.173C788.858 411.446 788.636 411.667 788.363 411.667Z" fill="white"/>
<path d="M331.176 110.833C330.902 110.833 330.681 110.612 330.681 110.339C330.681 110.065 330.902 109.844 331.176 109.844C331.449 109.844 331.67 110.065 331.67 110.339C331.67 110.612 331.449 110.833 331.176 110.833Z" fill="white"/>
<path opacity="0.4" d="M51.1243 30.6771C50.8511 30.6771 50.6296 30.4556 50.6296 30.1823C50.6296 29.909 50.8511 29.6875 51.1243 29.6875C51.3976 29.6875 51.6191 29.909 51.6191 30.1823C51.6191 30.4556 51.3976 30.6771 51.1243 30.6771Z" fill="white"/>
<path opacity="0.4" d="M420.238 81.1458C419.965 81.1458 419.743 80.9243 419.743 80.651C419.743 80.3778 419.965 80.1562 420.238 80.1562C420.511 80.1562 420.733 80.3778 420.733 80.651C420.733 80.9243 420.511 81.1458 420.238 81.1458Z" fill="white"/>
<path d="M140.186 0.989585C139.913 0.989585 139.692 0.768059 139.692 0.494793C139.692 0.221526 139.913 0 140.186 0C140.46 0 140.681 0.221526 140.681 0.494793C140.681 0.768059 140.46 0.989585 140.186 0.989585Z" fill="white"/>
<path d="M459.822 209.792C459.548 209.792 459.327 209.57 459.327 209.297C459.327 209.024 459.548 208.802 459.822 208.802C460.095 208.802 460.316 209.024 460.316 209.297C460.316 209.57 460.095 209.792 459.822 209.792Z" fill="white"/>
<path d="M179.769 129.636C179.496 129.636 179.275 129.414 179.275 129.141C179.275 128.868 179.496 128.646 179.769 128.646C180.043 128.646 180.264 128.868 180.264 129.141C180.264 129.414 180.043 129.636 179.769 129.636Z" fill="white"/>
<path d="M400.447 338.438C400.173 338.438 399.952 338.216 399.952 337.943C399.952 337.67 400.173 337.448 400.447 337.448C400.72 337.448 400.941 337.67 400.941 337.943C400.941 338.216 400.72 338.438 400.447 338.438Z" fill="white"/>
<path d="M120.394 258.282C120.121 258.282 119.9 258.06 119.9 257.787C119.9 257.514 120.121 257.292 120.394 257.292C120.668 257.292 120.889 257.514 120.889 257.787C120.889 258.06 120.668 258.282 120.394 258.282Z" fill="white"/>
<path d="M887.322 570.001C887.048 570.001 886.827 569.779 886.827 569.506C886.827 569.233 887.048 569.011 887.322 569.011C887.595 569.011 887.816 569.233 887.816 569.506C887.816 569.779 887.595 570.001 887.322 570.001Z" fill="white"/>
<path d="M252.009 279.063C251.736 279.063 251.514 278.841 251.514 278.568C251.514 278.295 251.736 278.073 252.009 278.073C252.282 278.073 252.504 278.295 252.504 278.568C252.504 278.841 252.282 279.063 252.009 279.063Z" fill="white"/>
<path d="M738.884 510.626C738.611 510.626 738.389 510.404 738.389 510.131C738.389 509.858 738.611 509.636 738.884 509.636C739.157 509.636 739.379 509.858 739.379 510.131C739.379 510.404 739.157 510.626 738.884 510.626Z" fill="white"/>
<path d="M232.218 269.167C231.944 269.167 231.723 268.946 231.723 268.673C231.723 268.399 231.944 268.178 232.218 268.178C232.491 268.178 232.712 268.399 232.712 268.673C232.712 268.946 232.491 269.167 232.218 269.167Z" fill="white"/>
<path d="M719.093 500.73C718.819 500.73 718.598 500.508 718.598 500.235C718.598 499.962 718.819 499.74 719.093 499.74C719.366 499.74 719.587 499.962 719.587 500.235C719.587 500.508 719.366 500.73 719.093 500.73Z" fill="white"/>
<path d="M222.322 180.104C222.048 180.104 221.827 179.883 221.827 179.61C221.827 179.336 222.048 179.115 222.322 179.115C222.595 179.115 222.816 179.336 222.816 179.61C222.816 179.883 222.595 180.104 222.322 180.104Z" fill="white"/>
<path d="M709.197 411.667C708.923 411.667 708.702 411.446 708.702 411.173C708.702 410.899 708.923 410.678 709.197 410.678C709.47 410.678 709.691 410.899 709.691 411.173C709.691 411.446 709.47 411.667 709.197 411.667Z" fill="white"/>
<path opacity="0.4" d="M243.103 140.521C242.83 140.521 242.608 140.299 242.608 140.026C242.608 139.753 242.83 139.531 243.103 139.531C243.376 139.531 243.598 139.753 243.598 140.026C243.598 140.299 243.376 140.521 243.103 140.521Z" fill="white"/>
<path d="M729.978 372.084C729.705 372.084 729.483 371.862 729.483 371.589C729.483 371.316 729.705 371.094 729.978 371.094C730.251 371.094 730.473 371.316 730.473 371.589C730.473 371.862 730.251 372.084 729.978 372.084Z" fill="white"/>
<path opacity="0.4" d="M362.843 190C362.569 190 362.348 189.779 362.348 189.506C362.348 189.232 362.569 189.011 362.843 189.011C363.116 189.011 363.337 189.232 363.337 189.506C363.337 189.779 363.116 190 362.843 190Z" fill="white"/>
<path d="M82.7909 109.844C82.5176 109.844 82.2961 109.623 82.2961 109.349C82.2961 109.076 82.5176 108.854 82.7909 108.854C83.0641 108.854 83.2856 109.076 83.2856 109.349C83.2856 109.623 83.0641 109.844 82.7909 109.844Z" fill="white"/>
<path opacity="0.5" d="M849.718 421.563C849.444 421.563 849.223 421.342 849.223 421.069C849.223 420.795 849.444 420.574 849.718 420.574C849.991 420.574 850.212 420.795 850.212 421.069C850.212 421.342 849.991 421.563 849.718 421.563Z" fill="white"/>
<path opacity="0.5" d="M482.582 259.271C482.309 259.271 482.087 259.05 482.087 258.777C482.087 258.503 482.309 258.282 482.582 258.282C482.855 258.282 483.077 258.503 483.077 258.777C483.077 259.05 482.855 259.271 482.582 259.271Z" fill="white"/>
<path d="M202.53 179.115C202.257 179.115 202.035 178.894 202.035 178.62C202.035 178.347 202.257 178.125 202.53 178.125C202.803 178.125 203.025 178.347 203.025 178.62C203.025 178.894 202.803 179.115 202.53 179.115Z" fill="white"/>
<path opacity="0.4" d="M969.457 490.834C969.184 490.834 968.962 490.613 968.962 490.34C968.962 490.066 969.184 489.845 969.457 489.845C969.73 489.845 969.952 490.066 969.952 490.34C969.952 490.613 969.73 490.834 969.457 490.834Z" fill="white"/>
<path d="M612.218 368.126C611.944 368.126 611.723 367.904 611.723 367.631C611.723 367.358 611.944 367.136 612.218 367.136C612.491 367.136 612.712 367.358 612.712 367.631C612.712 367.904 612.491 368.126 612.218 368.126Z" fill="white"/>
<path d="M332.165 287.969C331.892 287.969 331.671 287.748 331.671 287.474C331.671 287.201 331.892 286.979 332.165 286.979C332.439 286.979 332.66 287.201 332.66 287.474C332.66 287.748 332.439 287.969 332.165 287.969Z" fill="white"/>
<path d="M1099.09 599.689C1098.82 599.689 1098.6 599.467 1098.6 599.194C1098.6 598.921 1098.82 598.699 1099.09 598.699C1099.37 598.699 1099.59 598.921 1099.59 599.194C1099.59 599.467 1099.37 599.689 1099.09 599.689Z" fill="white"/>
<path d="M692.374 476.98C692.101 476.98 691.879 476.758 691.879 476.485C691.879 476.212 692.101 475.99 692.374 475.99C692.647 475.99 692.869 476.212 692.869 476.485C692.869 476.758 692.647 476.98 692.374 476.98Z" fill="white"/>
<path d="M412.322 396.824C412.048 396.824 411.827 396.602 411.827 396.329C411.827 396.056 412.048 395.834 412.322 395.834C412.595 395.834 412.816 396.056 412.816 396.329C412.816 396.602 412.595 396.824 412.322 396.824Z" fill="white"/>
<path d="M1179.25 708.543C1178.98 708.543 1178.75 708.321 1178.75 708.048C1178.75 707.775 1178.98 707.553 1179.25 707.553C1179.52 707.553 1179.74 707.775 1179.74 708.048C1179.74 708.321 1179.52 708.543 1179.25 708.543Z" fill="white"/>
</g>
<g opacity="0.4">
<path opacity="0.4" d="M822.999 577.917C823.272 577.917 823.493 577.696 823.493 577.423C823.493 577.149 823.272 576.928 822.999 576.928C822.725 576.928 822.504 577.149 822.504 577.423C822.504 577.696 822.725 577.917 822.999 577.917Z" fill="white"/>
<path d="M1103.05 497.761C1103.32 497.761 1103.55 497.54 1103.55 497.266C1103.55 496.993 1103.32 496.771 1103.05 496.771C1102.78 496.771 1102.56 496.993 1102.56 497.266C1102.56 497.54 1102.78 497.761 1103.05 497.761Z" fill="white"/>
<path d="M336.124 809.48C336.397 809.48 336.618 809.259 336.618 808.986C336.618 808.712 336.397 808.491 336.124 808.491C335.85 808.491 335.629 808.712 335.629 808.986C335.629 809.259 335.85 809.48 336.124 809.48Z" fill="white"/>
<path d="M912.061 587.813C912.334 587.813 912.556 587.592 912.556 587.319C912.556 587.045 912.334 586.824 912.061 586.824C911.788 586.824 911.566 587.045 911.566 587.319C911.566 587.592 911.788 587.813 912.061 587.813Z" fill="white"/>
<path d="M1192.11 507.657C1192.39 507.657 1192.61 507.436 1192.61 507.162C1192.61 506.889 1192.39 506.667 1192.11 506.667C1191.84 506.667 1191.62 506.889 1191.62 507.162C1191.62 507.436 1191.84 507.657 1192.11 507.657Z" fill="white"/>
<path d="M425.186 819.376C425.459 819.376 425.681 819.155 425.681 818.882C425.681 818.608 425.459 818.387 425.186 818.387C424.913 818.387 424.691 818.608 424.691 818.882C424.691 819.155 424.913 819.376 425.186 819.376Z" fill="white"/>
<path d="M1001.12 538.334C1001.4 538.334 1001.62 538.113 1001.62 537.84C1001.62 537.566 1001.4 537.345 1001.12 537.345C1000.85 537.345 1000.63 537.566 1000.63 537.84C1000.63 538.113 1000.85 538.334 1001.12 538.334Z" fill="white"/>
<path opacity="0.5" d="M1281.18 458.178C1281.45 458.178 1281.67 457.956 1281.67 457.683C1281.67 457.41 1281.45 457.188 1281.18 457.188C1280.9 457.188 1280.68 457.41 1280.68 457.683C1280.68 457.956 1280.9 458.178 1281.18 458.178Z" fill="white"/>
<path d="M514.249 769.897C514.522 769.897 514.743 769.675 514.743 769.402C514.743 769.129 514.522 768.907 514.249 768.907C513.975 768.907 513.754 769.129 513.754 769.402C513.754 769.675 513.975 769.897 514.249 769.897Z" fill="white"/>
<path d="M1090.19 449.271C1090.46 449.271 1090.68 449.05 1090.68 448.777C1090.68 448.503 1090.46 448.282 1090.19 448.282C1089.91 448.282 1089.69 448.503 1089.69 448.777C1089.69 449.05 1089.91 449.271 1090.19 449.271Z" fill="white"/>
<path opacity="0.5" d="M1370.24 369.115C1370.51 369.115 1370.73 368.894 1370.73 368.62C1370.73 368.347 1370.51 368.125 1370.24 368.125C1369.97 368.125 1369.74 368.347 1369.74 368.62C1369.74 368.894 1369.97 369.115 1370.24 369.115Z" fill="white"/>
<path opacity="0.4" d="M603.311 680.834C603.584 680.834 603.806 680.613 603.806 680.34C603.806 680.066 603.584 679.845 603.311 679.845C603.038 679.845 602.816 680.066 602.816 680.34C602.816 680.613 603.038 680.834 603.311 680.834Z" fill="white"/>
<path d="M1060.5 380C1060.77 380 1060.99 379.779 1060.99 379.506C1060.99 379.232 1060.77 379.011 1060.5 379.011C1060.23 379.011 1060 379.232 1060 379.506C1060 379.779 1060.23 380 1060.5 380Z" fill="white"/>
<path opacity="0.4" d="M1340.55 299.844C1340.82 299.844 1341.05 299.623 1341.05 299.349C1341.05 299.076 1340.82 298.854 1340.55 298.854C1340.28 298.854 1340.06 299.076 1340.06 299.349C1340.06 299.623 1340.28 299.844 1340.55 299.844Z" fill="white"/>
<path opacity="0.4" d="M971.436 350.313C971.709 350.313 971.931 350.091 971.931 349.818C971.931 349.545 971.709 349.323 971.436 349.323C971.163 349.323 970.941 349.545 970.941 349.818C970.941 350.091 971.163 350.313 971.436 350.313Z" fill="white"/>
<path d="M1251.49 270.157C1251.76 270.157 1251.98 269.935 1251.98 269.662C1251.98 269.389 1251.76 269.167 1251.49 269.167C1251.22 269.167 1250.99 269.389 1250.99 269.662C1250.99 269.935 1251.22 270.157 1251.49 270.157Z" fill="white"/>
<path d="M931.853 478.959C932.126 478.959 932.348 478.737 932.348 478.464C932.348 478.191 932.126 477.969 931.853 477.969C931.58 477.969 931.358 478.191 931.358 478.464C931.358 478.737 931.58 478.959 931.853 478.959Z" fill="white"/>
<path d="M1211.9 398.803C1212.18 398.803 1212.4 398.581 1212.4 398.308C1212.4 398.035 1212.18 397.813 1211.9 397.813C1211.63 397.813 1211.41 398.035 1211.41 398.308C1211.41 398.581 1211.63 398.803 1211.9 398.803Z" fill="white"/>
<path d="M991.228 607.605C991.501 607.605 991.723 607.383 991.723 607.11C991.723 606.837 991.501 606.615 991.228 606.615C990.955 606.615 990.733 606.837 990.733 607.11C990.733 607.383 990.955 607.605 991.228 607.605Z" fill="white"/>
<path d="M1271.28 527.449C1271.55 527.449 1271.77 527.227 1271.77 526.954C1271.77 526.681 1271.55 526.459 1271.28 526.459C1271.01 526.459 1270.79 526.681 1270.79 526.954C1270.79 527.227 1271.01 527.449 1271.28 527.449Z" fill="white"/>
<path d="M504.353 839.168C504.626 839.168 504.848 838.946 504.848 838.673C504.848 838.4 504.626 838.178 504.353 838.178C504.08 838.178 503.858 838.4 503.858 838.673C503.858 838.946 504.08 839.168 504.353 839.168Z" fill="white"/>
<path d="M1139.67 548.23C1139.94 548.23 1140.16 548.008 1140.16 547.735C1140.16 547.462 1139.94 547.24 1139.67 547.24C1139.39 547.24 1139.17 547.462 1139.17 547.735C1139.17 548.008 1139.39 548.23 1139.67 548.23Z" fill="white"/>
<path d="M1419.72 468.074C1419.99 468.074 1420.21 467.852 1420.21 467.579C1420.21 467.306 1419.99 467.084 1419.72 467.084C1419.44 467.084 1419.22 467.306 1419.22 467.579C1419.22 467.852 1419.44 468.074 1419.72 468.074Z" fill="white"/>
<path d="M652.791 779.793C653.064 779.793 653.285 779.571 653.285 779.298C653.285 779.025 653.064 778.803 652.791 778.803C652.517 778.803 652.296 779.025 652.296 779.298C652.296 779.571 652.517 779.793 652.791 779.793Z" fill="white"/>
<path d="M1159.46 538.334C1159.73 538.334 1159.95 538.113 1159.95 537.84C1159.95 537.566 1159.73 537.345 1159.46 537.345C1159.18 537.345 1158.96 537.566 1158.96 537.84C1158.96 538.113 1159.18 538.334 1159.46 538.334Z" fill="white"/>
<path d="M1439.51 458.178C1439.78 458.178 1440 457.956 1440 457.683C1440 457.41 1439.78 457.188 1439.51 457.188C1439.24 457.188 1439.01 457.41 1439.01 457.683C1439.01 457.956 1439.24 458.178 1439.51 458.178Z" fill="white"/>
<path d="M672.582 769.897C672.855 769.897 673.077 769.675 673.077 769.402C673.077 769.129 672.855 768.907 672.582 768.907C672.309 768.907 672.087 769.129 672.087 769.402C672.087 769.675 672.309 769.897 672.582 769.897Z" fill="white"/>
<path d="M1169.35 449.271C1169.63 449.271 1169.85 449.05 1169.85 448.777C1169.85 448.503 1169.63 448.282 1169.35 448.282C1169.08 448.282 1168.86 448.503 1168.86 448.777C1168.86 449.05 1169.08 449.271 1169.35 449.271Z" fill="white"/>
<path d="M682.478 680.834C682.751 680.834 682.973 680.613 682.973 680.34C682.973 680.066 682.751 679.845 682.478 679.845C682.205 679.845 681.983 680.066 681.983 680.34C681.983 680.613 682.205 680.834 682.478 680.834Z" fill="white"/>
<path opacity="0.4" d="M1148.57 409.688C1148.85 409.688 1149.07 409.466 1149.07 409.193C1149.07 408.92 1148.85 408.698 1148.57 408.698C1148.3 408.698 1148.08 408.92 1148.08 409.193C1148.08 409.466 1148.3 409.688 1148.57 409.688Z" fill="white"/>
<path d="M1428.62 329.532C1428.9 329.532 1429.12 329.31 1429.12 329.037C1429.12 328.764 1428.9 328.542 1428.62 328.542C1428.35 328.542 1428.13 328.764 1428.13 329.037C1428.13 329.31 1428.35 329.532 1428.62 329.532Z" fill="white"/>
<path d="M661.697 641.251C661.97 641.251 662.192 641.029 662.192 640.756C662.192 640.483 661.97 640.261 661.697 640.261C661.424 640.261 661.202 640.483 661.202 640.756C661.202 641.029 661.424 641.251 661.697 641.251Z" fill="white"/>
<path opacity="0.4" d="M1028.83 459.167C1029.11 459.167 1029.33 458.946 1029.33 458.673C1029.33 458.399 1029.11 458.178 1028.83 458.178C1028.56 458.178 1028.34 458.399 1028.34 458.673C1028.34 458.946 1028.56 459.167 1028.83 459.167Z" fill="white"/>
<path d="M1308.88 379.011C1309.16 379.011 1309.38 378.79 1309.38 378.516C1309.38 378.243 1309.16 378.021 1308.88 378.021C1308.61 378.021 1308.39 378.243 1308.39 378.516C1308.39 378.79 1308.61 379.011 1308.88 379.011Z" fill="white"/>
<path opacity="0.5" d="M541.957 690.73C542.23 690.73 542.452 690.509 542.452 690.236C542.452 689.962 542.23 689.741 541.957 689.741C541.684 689.741 541.462 689.962 541.462 690.236C541.462 690.509 541.684 690.73 541.957 690.73Z" fill="white"/>
<path opacity="0.5" d="M909.092 528.438C909.366 528.438 909.587 528.217 909.587 527.944C909.587 527.67 909.366 527.449 909.092 527.449C908.819 527.449 908.598 527.67 908.598 527.944C908.598 528.217 908.819 528.438 909.092 528.438Z" fill="white"/>
<path d="M1189.14 448.282C1189.42 448.282 1189.64 448.061 1189.64 447.787C1189.64 447.514 1189.42 447.292 1189.14 447.292C1188.87 447.292 1188.65 447.514 1188.65 447.787C1188.65 448.061 1188.87 448.282 1189.14 448.282Z" fill="white"/>
<path opacity="0.4" d="M422.217 760.001C422.491 760.001 422.712 759.78 422.712 759.507C422.712 759.233 422.491 759.012 422.217 759.012C421.944 759.012 421.723 759.233 421.723 759.507C421.723 759.78 421.944 760.001 422.217 760.001Z" fill="white"/>
<path d="M779.457 637.293C779.73 637.293 779.952 637.071 779.952 636.798C779.952 636.525 779.73 636.303 779.457 636.303C779.184 636.303 778.962 636.525 778.962 636.798C778.962 637.071 779.184 637.293 779.457 637.293Z" fill="white"/>
<path d="M1059.51 557.136C1059.78 557.136 1060 556.915 1060 556.641C1060 556.368 1059.78 556.146 1059.51 556.146C1059.24 556.146 1059.01 556.368 1059.01 556.641C1059.01 556.915 1059.24 557.136 1059.51 557.136Z" fill="white"/>
<path d="M292.582 868.855C292.855 868.855 293.077 868.634 293.077 868.361C293.077 868.087 292.855 867.866 292.582 867.866C292.309 867.866 292.087 868.087 292.087 868.361C292.087 868.634 292.309 868.855 292.582 868.855Z" fill="white"/>
<path d="M699.301 746.147C699.574 746.147 699.796 745.925 699.796 745.652C699.796 745.379 699.574 745.157 699.301 745.157C699.028 745.157 698.806 745.379 698.806 745.652C698.806 745.925 699.028 746.147 699.301 746.147Z" fill="white"/>
<path d="M979.353 665.991C979.626 665.991 979.848 665.769 979.848 665.496C979.848 665.223 979.626 665.001 979.353 665.001C979.08 665.001 978.858 665.223 978.858 665.496C978.858 665.769 979.08 665.991 979.353 665.991Z" fill="white"/>
<path d="M212.426 977.71C212.699 977.71 212.921 977.488 212.921 977.215C212.921 976.942 212.699 976.72 212.426 976.72C212.153 976.72 211.931 976.942 211.931 977.215C211.931 977.488 212.153 977.71 212.426 977.71Z" fill="white"/>
</g>
</g>
<g style="mix-blend-mode:overlay" clip-path="url(#clip1_7_1279)" filter="url(#filter0_f_7_1279)">
<g style="mix-blend-mode:overlay" opacity="0.7" filter="url(#filter1_f_7_1279)">
<path opacity="0.1" d="M-136.401 437.879L280.719 408.123L295.038 1158.54L-136.401 437.879Z" fill="#BDFFDF"/>
</g>
<g style="mix-blend-mode:overlay" filter="url(#filter2_f_7_1279)">
<path opacity="0.1" d="M-243.276 246.463L-10.2583 593.98L592.734 106.996L-243.276 246.463Z" fill="#BDFFDF"/>
</g>
<g style="mix-blend-mode:overlay" opacity="0.1" filter="url(#filter3_f_7_1279)">
<path d="M1529.5 483.675L1112.38 449.04L1098.06 1322.5L1529.5 483.675Z" fill="#FFBDE8"/>
</g>
<g style="mix-blend-mode:overlay" filter="url(#filter4_f_7_1279)">
<path opacity="0.1" d="M1096.62 24.7393L889.963 388.719L1676.6 768.634L1096.62 24.7393Z" fill="#5B7CE7"/>
</g>
<g opacity="0.4">
<path opacity="0.4" d="M568.677 395.83C568.403 395.83 568.182 395.609 568.182 395.336C568.182 395.062 568.403 394.841 568.677 394.841C568.95 394.841 569.171 395.062 569.171 395.336C569.171 395.609 568.95 395.83 568.677 395.83Z" fill="white"/>
<path d="M288.625 315.675C288.352 315.675 288.13 315.453 288.13 315.18C288.13 314.907 288.352 314.685 288.625 314.685C288.898 314.685 289.12 314.907 289.12 315.18C289.12 315.453 288.898 315.675 288.625 315.675Z" fill="white"/>
<path d="M1055.55 627.391C1055.28 627.391 1055.06 627.17 1055.06 626.897C1055.06 626.623 1055.28 626.402 1055.55 626.402C1055.82 626.402 1056.05 626.623 1056.05 626.897C1056.05 627.17 1055.82 627.391 1055.55 627.391Z" fill="white"/>
<path d="M479.614 405.726C479.341 405.726 479.119 405.505 479.119 405.232C479.119 404.958 479.341 404.737 479.614 404.737C479.887 404.737 480.109 404.958 480.109 405.232C480.109 405.505 479.887 405.726 479.614 405.726Z" fill="white"/>
<path d="M199.562 325.571C199.289 325.571 199.068 325.349 199.068 325.076C199.068 324.803 199.289 324.581 199.562 324.581C199.836 324.581 200.057 324.803 200.057 325.076C200.057 325.349 199.836 325.571 199.562 325.571Z" fill="white"/>
<path d="M966.489 637.287C966.216 637.287 965.994 637.065 965.994 636.792C965.994 636.519 966.216 636.297 966.489 636.297C966.762 636.297 966.984 636.519 966.984 636.792C966.984 637.065 966.762 637.287 966.489 637.287Z" fill="white"/>
<path d="M390.552 356.247C390.278 356.247 390.057 356.026 390.057 355.753C390.057 355.479 390.278 355.258 390.552 355.258C390.825 355.258 391.046 355.479 391.046 355.753C391.046 356.026 390.825 356.247 390.552 356.247Z" fill="white"/>
<path opacity="0.5" d="M110.5 276.092C110.227 276.092 110.006 275.87 110.006 275.597C110.006 275.324 110.227 275.102 110.5 275.102C110.774 275.102 110.995 275.324 110.995 275.597C110.995 275.87 110.774 276.092 110.5 276.092Z" fill="white"/>
<path d="M877.427 587.808C877.153 587.808 876.932 587.587 876.932 587.314C876.932 587.04 877.153 586.819 877.427 586.819C877.7 586.819 877.921 587.04 877.921 587.314C877.921 587.587 877.7 587.808 877.427 587.808Z" fill="white"/>
<path d="M301.489 267.185C301.216 267.185 300.994 266.964 300.994 266.691C300.994 266.417 301.216 266.196 301.489 266.196C301.762 266.196 301.984 266.417 301.984 266.691C301.984 266.964 301.762 267.185 301.489 267.185Z" fill="white"/>
<path opacity="0.5" d="M21.4378 187.03C21.1646 187.03 20.943 186.808 20.943 186.535C20.943 186.262 21.1646 186.04 21.4378 186.04C21.7111 186.04 21.9326 186.262 21.9326 186.535C21.9326 186.808 21.7111 187.03 21.4378 187.03Z" fill="white"/>
<path opacity="0.4" d="M788.364 498.746C788.091 498.746 787.869 498.525 787.869 498.252C787.869 497.978 788.091 497.757 788.364 497.757C788.637 497.757 788.859 497.978 788.859 498.252C788.859 498.525 788.637 498.746 788.364 498.746Z" fill="white"/>
<path d="M331.177 197.915C330.903 197.915 330.682 197.693 330.682 197.42C330.682 197.147 330.903 196.925 331.177 196.925C331.45 196.925 331.671 197.147 331.671 197.42C331.671 197.693 331.45 197.915 331.177 197.915Z" fill="white"/>
<path opacity="0.4" d="M51.1253 117.76C50.8521 117.76 50.6305 117.538 50.6305 117.265C50.6305 116.992 50.8521 116.77 51.1253 116.77C51.3986 116.77 51.6201 116.992 51.6201 117.265C51.6201 117.538 51.3986 117.76 51.1253 117.76Z" fill="white"/>
<path opacity="0.4" d="M420.239 168.228C419.966 168.228 419.744 168.006 419.744 167.733C419.744 167.46 419.966 167.238 420.239 167.238C420.512 167.238 420.734 167.46 420.734 167.733C420.734 168.006 420.512 168.228 420.239 168.228Z" fill="white"/>
<path d="M140.187 88.0721C139.914 88.0721 139.693 87.8506 139.693 87.5773C139.693 87.304 139.914 87.0825 140.187 87.0825C140.461 87.0825 140.682 87.304 140.682 87.5773C140.682 87.8506 140.461 88.0721 140.187 88.0721Z" fill="white"/>
<path d="M459.823 296.873C459.549 296.873 459.328 296.651 459.328 296.378C459.328 296.105 459.549 295.883 459.823 295.883C460.096 295.883 460.317 296.105 460.317 296.378C460.317 296.651 460.096 296.873 459.823 296.873Z" fill="white"/>
<path d="M179.77 216.717C179.497 216.717 179.276 216.496 179.276 216.222C179.276 215.949 179.497 215.728 179.77 215.728C180.044 215.728 180.265 215.949 180.265 216.222C180.265 216.496 180.044 216.717 179.77 216.717Z" fill="white"/>
<path d="M400.448 425.518C400.174 425.518 399.953 425.296 399.953 425.023C399.953 424.75 400.174 424.528 400.448 424.528C400.721 424.528 400.942 424.75 400.942 425.023C400.942 425.296 400.721 425.518 400.448 425.518Z" fill="white"/>
<path d="M120.395 345.362C120.122 345.362 119.901 345.141 119.901 344.867C119.901 344.594 120.122 344.373 120.395 344.373C120.669 344.373 120.89 344.594 120.89 344.867C120.89 345.141 120.669 345.362 120.395 345.362Z" fill="white"/>
<path d="M887.323 657.078C887.049 657.078 886.828 656.857 886.828 656.584C886.828 656.31 887.049 656.089 887.323 656.089C887.596 656.089 887.817 656.31 887.817 656.584C887.817 656.857 887.596 657.078 887.323 657.078Z" fill="white"/>
<path d="M252.01 366.143C251.737 366.143 251.515 365.921 251.515 365.648C251.515 365.375 251.737 365.153 252.01 365.153C252.283 365.153 252.505 365.375 252.505 365.648C252.505 365.921 252.283 366.143 252.01 366.143Z" fill="white"/>
<path d="M738.885 597.704C738.612 597.704 738.39 597.482 738.39 597.209C738.39 596.936 738.612 596.714 738.885 596.714C739.158 596.714 739.38 596.936 739.38 597.209C739.38 597.482 739.158 597.704 738.885 597.704Z" fill="white"/>
<path d="M232.219 356.247C231.945 356.247 231.724 356.026 231.724 355.753C231.724 355.479 231.945 355.258 232.219 355.258C232.492 355.258 232.713 355.479 232.713 355.753C232.713 356.026 232.492 356.247 232.219 356.247Z" fill="white"/>
<path d="M719.094 587.808C718.82 587.808 718.599 587.587 718.599 587.314C718.599 587.04 718.82 586.819 719.094 586.819C719.367 586.819 719.588 587.04 719.588 587.314C719.588 587.587 719.367 587.808 719.094 587.808Z" fill="white"/>
<path d="M222.323 267.185C222.049 267.185 221.828 266.964 221.828 266.691C221.828 266.417 222.049 266.196 222.323 266.196C222.596 266.196 222.817 266.417 222.817 266.691C222.817 266.964 222.596 267.185 222.323 267.185Z" fill="white"/>
<path d="M709.198 498.746C708.924 498.746 708.703 498.525 708.703 498.252C708.703 497.978 708.924 497.757 709.198 497.757C709.471 497.757 709.692 497.978 709.692 498.252C709.692 498.525 709.471 498.746 709.198 498.746Z" fill="white"/>
<path opacity="0.4" d="M243.104 227.602C242.831 227.602 242.609 227.381 242.609 227.108C242.609 226.834 242.831 226.613 243.104 226.613C243.377 226.613 243.599 226.834 243.599 227.108C243.599 227.381 243.377 227.602 243.104 227.602Z" fill="white"/>
<path d="M729.979 459.163C729.706 459.163 729.484 458.942 729.484 458.669C729.484 458.395 729.706 458.174 729.979 458.174C730.252 458.174 730.474 458.395 730.474 458.669C730.474 458.942 730.252 459.163 729.979 459.163Z" fill="white"/>
<path opacity="0.4" d="M362.844 277.081C362.57 277.081 362.349 276.86 362.349 276.587C362.349 276.313 362.57 276.092 362.844 276.092C363.117 276.092 363.338 276.313 363.338 276.587C363.338 276.86 363.117 277.081 362.844 277.081Z" fill="white"/>
<path d="M82.7918 196.926C82.5186 196.926 82.297 196.704 82.297 196.431C82.297 196.158 82.5186 195.936 82.7918 195.936C83.0651 195.936 83.2866 196.158 83.2866 196.431C83.2866 196.704 83.0651 196.926 82.7918 196.926Z" fill="white"/>
<path opacity="0.5" d="M849.719 508.642C849.445 508.642 849.224 508.42 849.224 508.147C849.224 507.874 849.445 507.652 849.719 507.652C849.992 507.652 850.213 507.874 850.213 508.147C850.213 508.42 849.992 508.642 849.719 508.642Z" fill="white"/>
<path opacity="0.5" d="M482.583 346.351C482.31 346.351 482.088 346.13 482.088 345.857C482.088 345.583 482.31 345.362 482.583 345.362C482.856 345.362 483.078 345.583 483.078 345.857C483.078 346.13 482.856 346.351 482.583 346.351Z" fill="white"/>
<path d="M202.531 266.196C202.258 266.196 202.036 265.975 202.036 265.701C202.036 265.428 202.258 265.207 202.531 265.207C202.804 265.207 203.026 265.428 203.026 265.701C203.026 265.975 202.804 266.196 202.531 266.196Z" fill="white"/>
<path opacity="0.4" d="M969.458 577.912C969.185 577.912 968.963 577.691 968.963 577.418C968.963 577.144 969.185 576.923 969.458 576.923C969.731 576.923 969.953 577.144 969.953 577.418C969.953 577.691 969.731 577.912 969.458 577.912Z" fill="white"/>
<path d="M612.219 455.205C611.945 455.205 611.724 454.983 611.724 454.71C611.724 454.437 611.945 454.215 612.219 454.215C612.492 454.215 612.713 454.437 612.713 454.71C612.713 454.983 612.492 455.205 612.219 455.205Z" fill="white"/>
<path d="M332.166 375.049C331.893 375.049 331.672 374.828 331.672 374.554C331.672 374.281 331.893 374.06 332.166 374.06C332.44 374.06 332.661 374.281 332.661 374.554C332.661 374.828 332.44 375.049 332.166 375.049Z" fill="white"/>
<path d="M1099.09 686.766C1098.82 686.766 1098.6 686.544 1098.6 686.271C1098.6 685.998 1098.82 685.776 1099.09 685.776C1099.37 685.776 1099.59 685.998 1099.59 686.271C1099.59 686.544 1099.37 686.766 1099.09 686.766Z" fill="white"/>
<path d="M692.375 564.058C692.102 564.058 691.88 563.837 691.88 563.564C691.88 563.29 692.102 563.069 692.375 563.069C692.648 563.069 692.87 563.29 692.87 563.564C692.87 563.837 692.648 564.058 692.375 564.058Z" fill="white"/>
<path d="M412.323 483.903C412.049 483.903 411.828 483.681 411.828 483.408C411.828 483.135 412.049 482.913 412.323 482.913C412.596 482.913 412.817 483.135 412.817 483.408C412.817 483.681 412.596 483.903 412.323 483.903Z" fill="white"/>
<path d="M1179.25 795.619C1178.98 795.619 1178.76 795.398 1178.76 795.125C1178.76 794.851 1178.98 794.63 1179.25 794.63C1179.52 794.63 1179.74 794.851 1179.74 795.125C1179.74 795.398 1179.52 795.619 1179.25 795.619Z" fill="white"/>
</g>
<g opacity="0.4">
<path opacity="0.4" d="M823 664.995C823.273 664.995 823.494 664.774 823.494 664.501C823.494 664.227 823.273 664.006 823 664.006C822.726 664.006 822.505 664.227 822.505 664.501C822.505 664.774 822.726 664.995 823 664.995Z" fill="white"/>
<path d="M1103.05 584.84C1103.33 584.84 1103.55 584.618 1103.55 584.345C1103.55 584.072 1103.33 583.85 1103.05 583.85C1102.78 583.85 1102.56 584.072 1102.56 584.345C1102.56 584.618 1102.78 584.84 1103.05 584.84Z" fill="white"/>
<path d="M336.125 896.556C336.398 896.556 336.619 896.335 336.619 896.062C336.619 895.788 336.398 895.567 336.125 895.567C335.851 895.567 335.63 895.788 335.63 896.062C335.63 896.335 335.851 896.556 336.125 896.556Z" fill="white"/>
<path d="M912.062 674.891C912.335 674.891 912.557 674.67 912.557 674.397C912.557 674.123 912.335 673.902 912.062 673.902C911.789 673.902 911.567 674.123 911.567 674.397C911.567 674.67 911.789 674.891 912.062 674.891Z" fill="white"/>
<path d="M1192.11 594.736C1192.39 594.736 1192.61 594.514 1192.61 594.241C1192.61 593.968 1192.39 593.746 1192.11 593.746C1191.84 593.746 1191.62 593.968 1191.62 594.241C1191.62 594.514 1191.84 594.736 1192.11 594.736Z" fill="white"/>
<path d="M425.187 906.452C425.46 906.452 425.682 906.23 425.682 905.957C425.682 905.684 425.46 905.462 425.187 905.462C424.914 905.462 424.692 905.684 424.692 905.957C424.692 906.23 424.914 906.452 425.187 906.452Z" fill="white"/>
<path d="M1001.12 625.412C1001.4 625.412 1001.62 625.191 1001.62 624.918C1001.62 624.644 1001.4 624.423 1001.12 624.423C1000.85 624.423 1000.63 624.644 1000.63 624.918C1000.63 625.191 1000.85 625.412 1001.12 625.412Z" fill="white"/>
<path opacity="0.5" d="M1281.18 545.257C1281.45 545.257 1281.67 545.035 1281.67 544.762C1281.67 544.489 1281.45 544.267 1281.18 544.267C1280.9 544.267 1280.68 544.489 1280.68 544.762C1280.68 545.035 1280.9 545.257 1281.18 545.257Z" fill="white"/>
<path d="M514.25 856.973C514.523 856.973 514.744 856.752 514.744 856.479C514.744 856.205 514.523 855.984 514.25 855.984C513.976 855.984 513.755 856.205 513.755 856.479C513.755 856.752 513.976 856.973 514.25 856.973Z" fill="white"/>
<path d="M1090.19 536.35C1090.46 536.35 1090.68 536.129 1090.68 535.856C1090.68 535.582 1090.46 535.361 1090.19 535.361C1089.91 535.361 1089.69 535.582 1089.69 535.856C1089.69 536.129 1089.91 536.35 1090.19 536.35Z" fill="white"/>
<path opacity="0.5" d="M1370.24 456.195C1370.51 456.195 1370.73 455.973 1370.73 455.7C1370.73 455.427 1370.51 455.205 1370.24 455.205C1369.97 455.205 1369.74 455.427 1369.74 455.7C1369.74 455.973 1369.97 456.195 1370.24 456.195Z" fill="white"/>
<path opacity="0.4" d="M603.312 767.911C603.585 767.911 603.807 767.69 603.807 767.417C603.807 767.143 603.585 766.922 603.312 766.922C603.039 766.922 602.817 767.143 602.817 767.417C602.817 767.69 603.039 767.911 603.312 767.911Z" fill="white"/>
<path d="M1060.5 467.08C1060.77 467.08 1060.99 466.858 1060.99 466.585C1060.99 466.312 1060.77 466.09 1060.5 466.09C1060.23 466.09 1060 466.312 1060 466.585C1060 466.858 1060.23 467.08 1060.5 467.08Z" fill="white"/>
<path opacity="0.4" d="M1340.55 386.925C1340.83 386.925 1341.05 386.703 1341.05 386.43C1341.05 386.157 1340.83 385.935 1340.55 385.935C1340.28 385.935 1340.06 386.157 1340.06 386.43C1340.06 386.703 1340.28 386.925 1340.55 386.925Z" fill="white"/>
<path opacity="0.4" d="M971.437 437.393C971.71 437.393 971.932 437.171 971.932 436.898C971.932 436.625 971.71 436.403 971.437 436.403C971.164 436.403 970.942 436.625 970.942 436.898C970.942 437.171 971.164 437.393 971.437 437.393Z" fill="white"/>
<path d="M1251.49 357.237C1251.76 357.237 1251.98 357.016 1251.98 356.742C1251.98 356.469 1251.76 356.248 1251.49 356.248C1251.22 356.248 1250.99 356.469 1250.99 356.742C1250.99 357.016 1251.22 357.237 1251.49 357.237Z" fill="white"/>
<path d="M931.854 566.038C932.127 566.038 932.349 565.816 932.349 565.543C932.349 565.27 932.127 565.048 931.854 565.048C931.581 565.048 931.359 565.27 931.359 565.543C931.359 565.816 931.581 566.038 931.854 566.038Z" fill="white"/>
<path d="M1211.91 485.882C1212.18 485.882 1212.4 485.661 1212.4 485.387C1212.4 485.114 1212.18 484.893 1211.91 484.893C1211.63 484.893 1211.41 485.114 1211.41 485.387C1211.41 485.661 1211.63 485.882 1211.91 485.882Z" fill="white"/>
<path d="M991.229 694.683C991.502 694.683 991.724 694.461 991.724 694.188C991.724 693.915 991.502 693.693 991.229 693.693C990.956 693.693 990.734 693.915 990.734 694.188C990.734 694.461 990.956 694.683 991.229 694.683Z" fill="white"/>
<path d="M1271.28 614.527C1271.55 614.527 1271.78 614.306 1271.78 614.032C1271.78 613.759 1271.55 613.538 1271.28 613.538C1271.01 613.538 1270.79 613.759 1270.79 614.032C1270.79 614.306 1271.01 614.527 1271.28 614.527Z" fill="white"/>
<path d="M504.354 926.243C504.627 926.243 504.849 926.022 504.849 925.749C504.849 925.475 504.627 925.254 504.354 925.254C504.081 925.254 503.859 925.475 503.859 925.749C503.859 926.022 504.081 926.243 504.354 926.243Z" fill="white"/>
<path d="M1139.67 635.308C1139.94 635.308 1140.16 635.086 1140.16 634.813C1140.16 634.54 1139.94 634.318 1139.67 634.318C1139.39 634.318 1139.17 634.54 1139.17 634.813C1139.17 635.086 1139.39 635.308 1139.67 635.308Z" fill="white"/>
<path d="M1419.72 555.153C1419.99 555.153 1420.21 554.931 1420.21 554.658C1420.21 554.385 1419.99 554.163 1419.72 554.163C1419.45 554.163 1419.22 554.385 1419.22 554.658C1419.22 554.931 1419.45 555.153 1419.72 555.153Z" fill="white"/>
<path d="M652.792 866.869C653.065 866.869 653.286 866.647 653.286 866.374C653.286 866.101 653.065 865.879 652.792 865.879C652.518 865.879 652.297 866.101 652.297 866.374C652.297 866.647 652.518 866.869 652.792 866.869Z" fill="white"/>
<path d="M1159.46 625.412C1159.73 625.412 1159.95 625.191 1159.95 624.918C1159.95 624.644 1159.73 624.423 1159.46 624.423C1159.18 624.423 1158.96 624.644 1158.96 624.918C1158.96 625.191 1159.18 625.412 1159.46 625.412Z" fill="white"/>
<path d="M1439.51 545.257C1439.78 545.257 1440.01 545.035 1440.01 544.762C1440.01 544.489 1439.78 544.267 1439.51 544.267C1439.24 544.267 1439.02 544.489 1439.02 544.762C1439.02 545.035 1439.24 545.257 1439.51 545.257Z" fill="white"/>
<path d="M672.583 856.973C672.856 856.973 673.078 856.752 673.078 856.479C673.078 856.205 672.856 855.984 672.583 855.984C672.31 855.984 672.088 856.205 672.088 856.479C672.088 856.752 672.31 856.973 672.583 856.973Z" fill="white"/>
<path d="M1169.35 536.35C1169.63 536.35 1169.85 536.129 1169.85 535.856C1169.85 535.582 1169.63 535.361 1169.35 535.361C1169.08 535.361 1168.86 535.582 1168.86 535.856C1168.86 536.129 1169.08 536.35 1169.35 536.35Z" fill="white"/>
<path d="M682.479 767.911C682.752 767.911 682.974 767.69 682.974 767.417C682.974 767.143 682.752 766.922 682.479 766.922C682.206 766.922 681.984 767.143 681.984 767.417C681.984 767.69 682.206 767.911 682.479 767.911Z" fill="white"/>
<path opacity="0.4" d="M1148.57 496.767C1148.85 496.767 1149.07 496.546 1149.07 496.273C1149.07 495.999 1148.85 495.778 1148.57 495.778C1148.3 495.778 1148.08 495.999 1148.08 496.273C1148.08 496.546 1148.3 496.767 1148.57 496.767Z" fill="white"/>
<path d="M1428.62 416.612C1428.9 416.612 1429.12 416.39 1429.12 416.117C1429.12 415.844 1428.9 415.622 1428.62 415.622C1428.35 415.622 1428.13 415.844 1428.13 416.117C1428.13 416.39 1428.35 416.612 1428.62 416.612Z" fill="white"/>
<path d="M661.698 728.328C661.971 728.328 662.193 728.107 662.193 727.834C662.193 727.56 661.971 727.339 661.698 727.339C661.425 727.339 661.203 727.56 661.203 727.834C661.203 728.107 661.425 728.328 661.698 728.328Z" fill="white"/>
<path opacity="0.4" d="M1028.83 546.246C1029.11 546.246 1029.33 546.025 1029.33 545.752C1029.33 545.478 1029.11 545.257 1028.83 545.257C1028.56 545.257 1028.34 545.478 1028.34 545.752C1028.34 546.025 1028.56 546.246 1028.83 546.246Z" fill="white"/>
<path d="M1308.89 466.091C1309.16 466.091 1309.38 465.869 1309.38 465.596C1309.38 465.323 1309.16 465.101 1308.89 465.101C1308.61 465.101 1308.39 465.323 1308.39 465.596C1308.39 465.869 1308.61 466.091 1308.89 466.091Z" fill="white"/>
<path opacity="0.5" d="M541.958 777.807C542.231 777.807 542.453 777.585 542.453 777.312C542.453 777.039 542.231 776.817 541.958 776.817C541.685 776.817 541.463 777.039 541.463 777.312C541.463 777.585 541.685 777.807 541.958 777.807Z" fill="white"/>
<path opacity="0.5" d="M909.093 615.516C909.367 615.516 909.588 615.295 909.588 615.022C909.588 614.748 909.367 614.527 909.093 614.527C908.82 614.527 908.599 614.748 908.599 615.022C908.599 615.295 908.82 615.516 909.093 615.516Z" fill="white"/>
<path d="M1189.15 535.361C1189.42 535.361 1189.64 535.139 1189.64 534.866C1189.64 534.593 1189.42 534.371 1189.15 534.371C1188.87 534.371 1188.65 534.593 1188.65 534.866C1188.65 535.139 1188.87 535.361 1189.15 535.361Z" fill="white"/>
<path opacity="0.4" d="M422.218 847.077C422.492 847.077 422.713 846.856 422.713 846.583C422.713 846.309 422.492 846.088 422.218 846.088C421.945 846.088 421.724 846.309 421.724 846.583C421.724 846.856 421.945 847.077 422.218 847.077Z" fill="white"/>
<path d="M779.458 724.37C779.731 724.37 779.953 724.148 779.953 723.875C779.953 723.602 779.731 723.38 779.458 723.38C779.185 723.38 778.963 723.602 778.963 723.875C778.963 724.148 779.185 724.37 779.458 724.37Z" fill="white"/>
<path d="M1059.51 644.214C1059.78 644.214 1060.01 643.993 1060.01 643.719C1060.01 643.446 1059.78 643.225 1059.51 643.225C1059.24 643.225 1059.02 643.446 1059.02 643.719C1059.02 643.993 1059.24 644.214 1059.51 644.214Z" fill="white"/>
<path d="M292.583 955.931C292.856 955.931 293.078 955.709 293.078 955.436C293.078 955.163 292.856 954.941 292.583 954.941C292.31 954.941 292.088 955.163 292.088 955.436C292.088 955.709 292.31 955.931 292.583 955.931Z" fill="white"/>
<path d="M699.302 833.223C699.575 833.223 699.797 833.002 699.797 832.729C699.797 832.455 699.575 832.234 699.302 832.234C699.029 832.234 698.807 832.455 698.807 832.729C698.807 833.002 699.029 833.223 699.302 833.223Z" fill="white"/>
<path d="M979.354 753.068C979.627 753.068 979.849 752.846 979.849 752.573C979.849 752.3 979.627 752.078 979.354 752.078C979.081 752.078 978.859 752.3 978.859 752.573C978.859 752.846 979.081 753.068 979.354 753.068Z" fill="white"/>
<path d="M212.427 1064.78C212.7 1064.78 212.922 1064.56 212.922 1064.29C212.922 1064.02 212.7 1063.79 212.427 1063.79C212.154 1063.79 211.932 1064.02 211.932 1064.29C211.932 1064.56 212.154 1064.78 212.427 1064.78Z" fill="white"/>
</g>
<g style="mix-blend-mode:overlay" filter="url(#filter5_f_7_1279)">
<path opacity="0.1" d="M1754.94 1054.38L1528.12 752.173L826.993 1199.88L1754.94 1054.38Z" fill="#A387F2"/>
</g>
<g filter="url(#filter6_f_7_1279)">
<path d="M666.151 363.175H654.276C646.078 363.175 639.432 369.821 639.432 378.018C639.432 386.216 646.078 392.862 654.276 392.862H666.151C674.349 392.862 680.995 386.216 680.995 378.018C680.995 369.821 674.349 363.175 666.151 363.175Z" fill="#B868C7"/>
</g>
<g filter="url(#filter7_f_7_1279)">
<path d="M789.354 355.258H770.552C765.36 355.258 761.151 359.467 761.151 364.659C761.151 369.851 765.36 374.06 770.552 374.06H789.354C794.546 374.06 798.755 369.851 798.755 364.659C798.755 359.467 794.546 355.258 789.354 355.258Z" fill="#F6F6F6"/>
</g>
</g>
<defs>
<filter id="filter0_f_7_1279" x="0.00488281" y="-15" width="1455" height="1385.72" filterUnits="userSpaceOnUse" color-interpolation-filters="sRGB">
<feFlood flood-opacity="0" result="BackgroundImageFix"/>
<feBlend mode="normal" in="SourceGraphic" in2="BackgroundImageFix" result="shape"/>
<feGaussianBlur stdDeviation="7.5" result="effect1_foregroundBlur_7_1279"/>
</filter>
<filter id="filter1_f_7_1279" x="-264.401" y="280.123" width="687.439" height="1006.41" filterUnits="userSpaceOnUse" color-interpolation-filters="sRGB">
<feFlood flood-opacity="0" result="BackgroundImageFix"/>
<feBlend mode="normal" in="SourceGraphic" in2="BackgroundImageFix" result="shape"/>
<feGaussianBlur stdDeviation="64" result="effect1_foregroundBlur_7_1279"/>
</filter>
<filter id="filter2_f_7_1279" x="-371.276" y="-21.0039" width="1092.01" height="742.983" filterUnits="userSpaceOnUse" color-interpolation-filters="sRGB">
<feFlood flood-opacity="0" result="BackgroundImageFix"/>
<feBlend mode="normal" in="SourceGraphic" in2="BackgroundImageFix" result="shape"/>
<feGaussianBlur stdDeviation="64" result="effect1_foregroundBlur_7_1279"/>
</filter>
<filter id="filter3_f_7_1279" x="970.064" y="321.04" width="687.438" height="1129.46" filterUnits="userSpaceOnUse" color-interpolation-filters="sRGB">
<feFlood flood-opacity="0" result="BackgroundImageFix"/>
<feBlend mode="normal" in="SourceGraphic" in2="BackgroundImageFix" result="shape"/>
<feGaussianBlur stdDeviation="64" result="effect1_foregroundBlur_7_1279"/>
</filter>
<filter id="filter4_f_7_1279" x="761.963" y="-103.261" width="1042.64" height="999.895" filterUnits="userSpaceOnUse" color-interpolation-filters="sRGB">
<feFlood flood-opacity="0" result="BackgroundImageFix"/>
<feBlend mode="normal" in="SourceGraphic" in2="BackgroundImageFix" result="shape"/>
<feGaussianBlur stdDeviation="64" result="effect1_foregroundBlur_7_1279"/>
</filter>
<filter id="filter5_f_7_1279" x="698.993" y="624.173" width="1183.95" height="703.708" filterUnits="userSpaceOnUse" color-interpolation-filters="sRGB">
<feFlood flood-opacity="0" result="BackgroundImageFix"/>
<feBlend mode="normal" in="SourceGraphic" in2="BackgroundImageFix" result="shape"/>
<feGaussianBlur stdDeviation="64" result="effect1_foregroundBlur_7_1279"/>
</filter>
<filter id="filter6_f_7_1279" x="563.432" y="287.175" width="193.562" height="181.688" filterUnits="userSpaceOnUse" color-interpolation-filters="sRGB">
<feFlood flood-opacity="0" result="BackgroundImageFix"/>
<feBlend mode="normal" in="SourceGraphic" in2="BackgroundImageFix" result="shape"/>
<feGaussianBlur stdDeviation="38" result="effect1_foregroundBlur_7_1279"/>
</filter>
<filter id="filter7_f_7_1279" x="685.151" y="279.258" width="189.604" height="170.802" filterUnits="userSpaceOnUse" color-interpolation-filters="sRGB">
<feFlood flood-opacity="0" result="BackgroundImageFix"/>
<feBlend mode="normal" in="SourceGraphic" in2="BackgroundImageFix" result="shape"/>
<feGaussianBlur stdDeviation="38" result="effect1_foregroundBlur_7_1279"/>
</filter>
<clipPath id="clip0_7_1279">
<rect width="1425" height="977.71" fill="white" transform="translate(15.0039)"/>
</clipPath>
<clipPath id="clip1_7_1279">
<rect width="1425" height="1355.72" fill="white" transform="translate(15.0049)"/>
</clipPath>
</defs>
</svg>
