<svg width="72" height="29" viewBox="0 0 72 29" fill="none" xmlns="http://www.w3.org/2000/svg">
<path d="M0 14.5C0 6.49187 6.49187 0 14.5 0H57.15C65.1581 0 71.65 6.49187 71.65 14.5V14.5C71.65 22.5081 65.1581 29 57.15 29H14.5C6.49188 29 0 22.5081 0 14.5V14.5Z" fill="white" fill-opacity="0.1"/>
<path d="M0 14.5C0 6.49187 6.49187 0 14.5 0H57.15C65.1581 0 71.65 6.49187 71.65 14.5V14.5C71.65 22.5081 65.1581 29 57.15 29H14.5C6.49188 29 0 22.5081 0 14.5V14.5Z" fill="url(#paint0_linear_7_1598)"/>
<path d="M0 14.5C0 6.49187 6.49187 0 14.5 0H57.15C65.1581 0 71.65 6.49187 71.65 14.5V14.5C71.65 22.5081 65.1581 29 57.15 29H14.5C6.49188 29 0 22.5081 0 14.5V14.5Z" fill="url(#paint1_radial_7_1598)"/>
<defs>
<linearGradient id="paint0_linear_7_1598" x1="0" y1="0" x2="73.6042" y2="6.35045" gradientUnits="userSpaceOnUse">
<stop offset="0.1583" stop-color="#C070D8" stop-opacity="0.3"/>
<stop offset="0.6301" stop-color="#171717" stop-opacity="0.3"/>
</linearGradient>
<radialGradient id="paint1_radial_7_1598" cx="0" cy="0" r="1" gradientUnits="userSpaceOnUse" gradientTransform="translate(35.825 14.5) rotate(22.0354) scale(38.6482 26.8816)">
<stop stop-color="white" stop-opacity="0.1"/>
<stop offset="1" stop-color="white" stop-opacity="0"/>
</radialGradient>
</defs>
</svg>
